<svg width="141" height="182" viewBox="0 0 141 182" fill="none" xmlns="http://www.w3.org/2000/svg">
<g filter="url(#filter0_d)">
<path d="M70.6123 26.562C48.3304 26.562 30.3022 43.8072 30.3022 65.0582C30.3022 86.3092 70.6123 147.211 70.6123 147.211C70.6123 147.211 110.922 86.3092 110.922 65.0582C110.922 43.8072 92.8943 26.562 70.6123 26.562Z" fill="#F58021"/>
<path d="M61.0622 80.6874C61.2864 81.1792 61.6308 80.9454 61.9912 80.9374C62.5678 80.9212 62.9201 80.5342 63.4407 80.3085C62.9842 80.1714 62.5998 80.0505 62.1914 79.9215C62.0632 80.1875 61.9271 80.4778 61.7829 80.7761C61.7429 80.7761 61.6949 80.7761 61.6548 80.7761C61.6068 80.5584 61.5427 80.3407 61.5267 80.123C61.5107 79.865 61.4226 79.736 61.1503 79.728C60.9981 79.7199 60.846 79.6231 60.6378 79.5425C60.4856 79.9457 60.3094 80.3972 60.1012 80.9535C59.7488 80.3407 59.8129 79.7683 59.8449 79.2119C59.3804 78.9459 59.3804 78.9459 59.0921 79.8247C59.0361 79.6876 58.94 79.5506 58.932 79.4135C58.8999 79.0749 58.7638 78.8652 58.4034 78.7685C58.1151 78.6798 58.019 78.7121 58.011 79.0265C58.003 79.3974 57.963 79.7763 57.8989 80.1472C57.8749 80.3165 57.7708 80.4778 57.7067 80.6471C57.6666 80.6471 57.6266 80.6471 57.5946 80.6471C57.5465 80.4939 57.4905 80.3407 57.4424 80.1875C57.3063 79.728 57.1861 79.2603 57.042 78.8007C56.9859 78.6153 56.8978 78.5105 56.6576 78.5911C56.4974 78.6476 56.3052 78.5992 56.0409 78.5992C55.9769 78.7927 55.8808 79.0588 55.7847 79.3248C55.7446 79.3329 55.6966 79.3409 55.6565 79.349C55.5765 79.1152 55.5044 78.8814 55.4083 78.6476C55.3522 78.5105 55.2721 78.3895 55.2001 78.2605C55.112 78.3895 55.0319 78.5266 54.9438 78.6556C54.9118 78.7121 54.8797 78.7685 54.7996 78.9217C54.6395 78.6072 54.5193 78.3573 54.3832 78.0912C53.2941 78.0509 53.6544 79.0265 53.4062 79.5748C53.3661 79.5828 53.3261 79.5909 53.2781 79.599C53.19 79.349 53.0618 79.1152 53.0298 78.8572C52.9897 78.5508 53.0538 78.2444 53.0458 77.93C53.0458 77.8252 52.9737 77.7284 52.9337 77.6236C52.8216 77.68 52.6534 77.7042 52.6134 77.7848C52.5173 78.0267 52.4692 78.2928 52.317 78.575C52.261 78.3492 52.1809 78.1235 52.1649 77.8977C52.1168 77.2043 52.0768 76.519 52.0528 75.8256C52.0207 75.0838 52.277 74.7291 52.9817 74.463C53.246 74.3582 53.4863 74.1728 53.7586 74.0679C53.9828 73.9793 54.2631 73.8664 54.4793 73.9228C55.0559 74.0599 55.6245 74.2453 56.1691 74.4791C56.6175 74.6726 57.05 74.7855 57.5465 74.7936C58.011 74.8016 58.4755 74.971 58.924 75.1322C59.2523 75.2532 59.5246 75.3419 59.8689 75.1564C60.0451 75.0677 60.3494 75.1 60.5497 75.1887C61.0302 75.3902 61.5027 75.3499 61.9992 75.2773C62.776 75.1725 63.5528 75.1322 64.3376 75.0435C64.5699 75.0193 64.8101 74.9629 65.0183 74.8662C65.3627 74.7049 65.699 74.5114 66.0194 74.3018C66.2196 74.1647 66.3798 73.9551 66.572 73.8019C67.0204 73.431 67.525 73.3907 68.0775 73.5439C68.2697 73.6003 68.502 73.5116 68.7182 73.4955C68.8463 73.4874 68.9825 73.4713 69.1106 73.4632C69.511 73.431 69.9115 73.3987 70.3199 73.3746C70.6642 73.3504 71.0166 73.2617 71.3369 73.3342C72.0337 73.4955 72.5142 73.1004 73.0027 72.7537C73.0988 72.6892 73.1228 72.3022 73.0267 72.2055C72.5462 71.7136 72.5863 71.1815 72.7704 70.601C72.9787 69.9398 73.339 69.4158 74.0037 69.1658C74.5723 68.9481 74.7485 68.6176 74.6124 68.029C74.5964 67.9725 74.5563 67.9161 74.5083 67.8758C74.26 67.65 74.0198 67.4082 73.7475 67.2147C73.6514 67.1502 73.4672 67.1663 73.339 67.2147C73.259 67.2388 73.1548 67.392 73.1709 67.4727C73.267 68.0612 72.8025 68.4321 72.6263 68.9239C72.4501 68.545 72.1858 68.1902 72.2819 67.7549C72.346 67.4565 72.2099 67.2953 71.9696 67.2711C71.8174 67.255 71.6333 67.392 71.4891 67.4888C71.3369 67.5936 71.1848 67.7145 71.0647 67.8597C70.9445 68.0048 70.8564 68.1822 70.7203 68.3999C70.5361 68.037 70.6722 67.6904 70.7043 67.3678C70.7283 67.1502 70.8725 66.9405 70.9125 66.7228C70.9365 66.5858 70.9045 66.4084 70.8244 66.2955C70.7844 66.2391 70.5842 66.2794 70.464 66.3116C70.2078 66.3842 69.9595 66.4729 69.6792 66.5696C69.5271 66.0939 69.8634 65.8037 70.1357 65.5215C70.416 65.2312 70.7603 64.9974 71.1608 64.6749C71.0086 64.5943 70.8885 64.5378 70.6883 64.433C71.0967 64.3201 71.361 64.2073 71.6413 64.1831C72.0177 64.1589 72.1057 63.9089 72.1538 63.6348C72.346 62.4496 72.8425 61.4095 73.5393 60.4581C73.7875 60.1195 74.1399 59.8615 74.4282 59.5551C74.5643 59.418 74.7245 59.2568 74.7725 59.0875C75.1249 57.7571 76.0459 56.9589 77.2071 56.3623C77.2391 56.3461 77.2792 56.33 77.2952 56.3219C77.1831 55.2819 77.079 54.2498 76.9668 53.2017C76.3021 52.8469 75.9898 52.1213 75.5413 51.5085C75.5013 51.4521 75.4613 51.3795 75.4052 51.3473C74.8446 50.9925 74.1959 50.7184 73.7314 50.2669C73.283 49.8315 72.7464 49.6944 72.2259 49.4687C71.7854 49.2752 71.345 49.0816 70.9205 48.8559C70.7363 48.7591 70.5922 48.5818 70.392 48.4044C70.1197 48.3238 69.7673 48.2431 69.439 48.1141C68.8223 47.8722 68.2377 47.5659 67.6131 47.3643C67.1406 47.2111 66.62 47.195 66.1315 47.0821C65.9313 47.0337 65.7471 46.9128 65.5629 46.816C65.4988 46.7838 65.4348 46.7273 65.3707 46.7273C64.698 46.7032 63.9692 46.8322 63.3526 46.6306C62.5518 46.3645 61.7029 46.6145 60.9581 46.2597C60.0531 45.8243 59.1162 46.0662 58.1952 46.0017C58.0911 45.9936 57.971 46.0339 57.8749 46.0017C56.7857 45.6228 55.7606 46.0985 54.7035 46.2033C54.4313 46.2275 54.151 46.2113 53.8707 46.2194C53.7666 46.2194 53.6625 46.2355 53.5583 46.2516C52.6854 46.4048 51.8045 46.558 50.9396 46.7273C50.6593 46.7838 50.379 46.8886 50.1067 46.9853C49.45 47.2111 48.7613 47.3401 48.1207 47.6546C47.0315 48.1948 45.8463 48.5414 44.7892 49.1623C44.1004 49.5654 43.3637 49.8799 42.6269 50.1943C42.4267 50.283 42.1624 50.2185 41.9302 50.2185C42.0183 50.0089 42.0663 49.7509 42.2185 49.6057C42.4027 49.4203 42.683 49.3235 42.9072 49.1703C43.0113 49.0978 43.1314 48.993 43.1715 48.8801C43.2836 48.5737 43.4598 48.3802 43.8041 48.3479C43.9163 48.3399 44.0444 48.227 44.1085 48.1302C44.3167 47.7836 44.5569 47.5255 44.9093 47.582C45.1335 47.3804 45.3177 47.2272 45.4939 47.066C45.582 46.9853 45.6541 46.8967 45.7342 46.808C45.7822 46.7515 45.8142 46.6467 45.8783 46.6225C46.4069 46.3806 46.9354 46.1549 47.464 45.913C47.5761 45.8566 47.6962 45.7921 47.7923 45.7195C48.2328 45.3889 48.7773 45.2196 49.1377 44.7359C49.2338 44.5988 49.6102 44.6472 49.8585 44.6552C50.1067 44.6552 50.2509 44.5746 50.4191 44.373C50.5872 44.1715 50.8755 44.0102 51.1318 43.9538C51.4922 43.8812 51.8606 44.0183 52.1489 43.5829C52.269 43.3974 52.7095 43.4378 53.0058 43.3491C53.1579 43.3088 53.3902 43.2604 53.4382 43.1475C53.6544 42.6799 54.0388 42.7444 54.4232 42.7282C54.6555 42.7202 54.8957 42.6396 55.128 42.5912C55.4083 42.5347 55.6966 42.4057 55.9689 42.4219C56.2411 42.446 56.4334 42.4219 56.6015 42.2042C56.6416 42.1558 56.7056 42.0913 56.7617 42.0913C57.4344 42.0671 57.995 41.4624 58.7318 41.7043C58.8118 41.7285 58.924 41.6559 59.012 41.6237C59.6287 41.3979 60.2373 41.156 60.854 40.9544C61.0222 40.898 61.2384 40.9141 61.4066 40.9706C61.831 41.1076 62.1754 40.9706 62.5598 40.8013C62.776 40.7045 63.0563 40.7448 63.3045 40.7287C63.5448 40.7126 63.785 40.7126 64.0253 40.6964C64.0733 40.6964 64.1294 40.64 64.1775 40.6481C65.0343 40.8819 65.9633 40.2127 66.7962 40.8738C66.8923 40.9544 67.1325 40.9141 67.2767 40.8496C67.613 40.7045 67.9014 40.5916 68.2377 40.8819C68.3338 40.9625 68.558 40.8899 68.7262 40.898C68.9745 40.9141 69.2147 40.9303 69.463 40.9625C69.7833 41.0028 70.1037 41.1076 70.424 41.0996C70.7844 41.0915 71.0887 41.1238 71.377 41.3818C71.5452 41.5269 71.8335 41.5833 72.0737 41.5914C72.4821 41.5995 72.8665 41.5753 73.1629 41.9381C73.1949 41.9784 73.283 41.9865 73.347 41.9784C73.4111 41.9784 73.5072 41.9139 73.5393 41.9381C73.9317 42.2687 74.4442 42.188 74.8847 42.3574C75.173 42.4702 75.4212 42.6718 75.6935 42.8169C75.7656 42.8572 75.8777 42.8492 75.9578 42.8169C76.3102 42.696 76.5264 42.8572 76.6625 43.1636C76.7907 43.4539 76.9748 43.591 77.3032 43.599C77.4634 43.6071 77.7196 43.7119 77.7677 43.8409C77.9038 44.1876 78.1361 44.2521 78.4564 44.2521C78.5525 44.2521 78.6566 44.3166 78.7527 44.365C80.0981 45.0987 81.4435 45.8404 82.7969 46.558C84.2705 47.3401 85.3917 48.5173 86.4808 49.7428C87.0974 50.4442 87.6901 51.1618 88.3708 51.831C88.2346 51.5891 88.0664 51.3634 87.9623 51.1054C87.8823 50.9199 87.7942 50.6458 87.8742 50.5087C88.1786 49.9847 88.5149 49.4687 88.8993 49.001C89.1155 48.743 89.4439 48.6946 89.7722 48.9285C89.8924 49.0171 90.0685 49.0413 90.2287 49.0655C90.5651 49.122 90.8774 49.1542 91.0135 49.5654C91.0536 49.6864 91.3499 49.7428 91.5341 49.7831C92.0706 49.8879 92.2388 49.9766 92.399 50.3072C91.7663 50.5894 91.7984 50.5974 92.2708 51.1779C93.1598 52.2664 93.7364 53.4839 93.4961 54.9513C93.4801 55.0642 93.5442 55.2093 93.6002 55.3222C93.9927 56.0559 93.9846 56.7896 93.5682 57.5072C93.2399 58.0716 92.9676 58.6924 92.2388 58.8939C93.5442 62.4818 93.5362 66.0456 92.2708 69.6415C93.2078 69.8028 93.9206 70.2946 94.5292 70.9638C94.5452 70.9799 94.5693 71.0041 94.5853 71.0202C95.0738 71.754 95.5943 72.4473 96.195 73.1004C96.4913 73.4229 96.5874 74.0034 96.6434 74.4791C96.7155 75.1403 96.6674 75.8176 96.6594 76.4948C96.6514 77.0834 96.8677 77.4059 97.3962 77.6155C97.7005 77.7365 97.9968 77.8897 98.2771 78.059C98.4293 78.1557 98.5414 78.3331 98.6695 78.4702C98.6455 78.4944 98.6295 78.5266 98.6055 78.5508C98.4453 78.5186 98.2932 78.4944 98.0849 78.4541C98.117 78.5427 98.117 78.6072 98.149 78.6234C98.4934 78.8814 98.8377 79.1394 99.1981 79.3813C99.6866 79.7199 99.5665 80.2682 99.6946 80.76C99.2782 80.3891 98.6055 80.7277 98.2851 80.1633C98.2451 80.0908 97.9808 80.1553 97.9168 80.1553C97.8687 80.8729 97.8287 81.5421 97.7886 82.2032C97.7566 82.2193 97.7165 82.2274 97.6845 82.2435C97.4282 81.9371 97.172 81.6308 96.9077 81.3324C96.8276 81.2437 96.6514 81.1228 96.6274 81.147C96.5153 81.2357 96.3711 81.3889 96.3872 81.4937C96.4272 81.7678 96.3071 81.8726 96.0908 81.9855C95.9627 82.05 95.8746 82.2032 95.7705 82.3241C95.6744 82.437 95.5863 82.566 95.4982 82.687C95.4582 82.6789 95.4181 82.6708 95.3781 82.6628C95.3621 82.4612 95.3301 82.2596 95.322 82.0581C95.306 81.7678 95.322 81.4776 95.306 81.1873C95.282 80.8648 95.0898 80.7842 94.8255 80.9696C94.7615 81.018 94.6974 81.0825 94.6253 81.0906C94.1768 81.1712 94.1688 81.1712 94.0167 81.6308C93.9366 81.4856 93.8725 81.405 93.8405 81.3002C93.7124 80.8245 93.9526 80.1633 94.369 79.9053C94.8095 79.6393 94.8736 78.8652 94.6493 78.5024C94.3931 78.0912 94.1208 77.6962 93.8725 77.285C93.6643 76.9383 93.5682 76.5916 93.7043 76.1723C93.8485 75.7208 93.6002 75.3741 93.1438 75.2532C92.423 75.0677 91.7103 74.8742 90.9575 74.6646C90.6612 75.0919 90.3408 75.5676 90.0045 76.0352C89.1476 77.2205 88.0825 78.1154 86.6249 78.4621C86.4407 78.5024 86.2726 78.6476 86.1124 78.7524C85.8561 78.9217 85.6159 79.1313 85.2715 78.9943C85.2155 78.9701 85.0953 79.0346 85.0473 79.0991C83.0372 81.792 80.5065 83.8238 77.3432 84.9606C76.0138 85.4363 74.6444 85.783 73.267 86.0975C72.7865 86.2023 72.2419 86.0572 71.7374 85.9685C71.5291 85.9282 71.377 85.8879 71.1928 86.033C69.5831 87.2666 67.8133 87.5085 65.8912 86.9602C64.69 86.6216 63.4887 86.5571 62.2635 86.9118C61.8951 87.0166 61.4706 86.9199 61.0782 86.9199C60.3174 86.9118 59.5646 86.9038 58.8038 86.9038C58.7398 86.9038 58.6677 86.9199 58.6116 86.9521C57.6746 87.5165 56.6576 87.1618 55.6726 87.2021C54.5674 87.2505 53.7025 86.6458 52.9177 85.9282C52.6214 85.654 52.6614 85.267 53.0058 84.9042C53.0858 84.8155 53.1419 84.6785 53.1579 84.5575C53.214 84.1705 53.246 83.7754 53.2861 83.3804C53.3421 83.3723 53.3982 83.3642 53.4462 83.3562C53.5023 83.5255 53.5423 83.7109 53.6224 83.8722C53.7105 84.0415 53.8386 84.3237 53.9588 84.3318C54.191 84.3398 54.4953 84.2673 54.4953 83.8883C54.4953 83.7432 54.5914 83.5981 54.7436 83.4287C54.8237 83.6061 54.8957 83.7835 54.9758 83.977C55.3122 83.719 55.6726 83.4932 55.9609 83.1949C56.097 83.0498 56.089 82.7676 56.145 82.5499C56.2331 82.2274 56.2412 81.8646 56.6416 81.5904C56.6816 82.1629 56.7136 82.6708 56.7537 83.1707C56.8097 83.1869 56.8578 83.203 56.9139 83.211C57.034 82.9853 57.1461 82.7515 57.3063 82.4451C57.4104 82.695 57.4824 82.8724 57.5625 83.0578C57.7067 83.0578 57.8428 83.0578 57.979 83.0578C58.0671 82.7998 58.1471 82.558 58.2673 82.1871C58.3794 82.4128 58.4114 82.5499 58.4915 82.6386C58.5796 82.7353 58.7157 82.8482 58.8359 82.8482C59.0361 82.8563 59.1882 82.7515 59.1802 82.5015C59.1722 82.3403 59.2123 82.171 59.2283 81.9452C59.4525 82.0823 59.6047 82.179 59.7648 82.2838C59.8529 82.1226 59.941 81.9694 60.0451 81.7839C60.7659 82.1629 60.3334 81.405 60.4616 81.2518C60.7178 81.2679 60.918 81.2841 61.1102 81.2921C61.0302 81.1228 61.0462 80.9051 61.0622 80.6874ZM75.3572 64.2234C75.3251 64.2153 75.2931 64.2073 75.2691 64.1911C74.8046 64.5217 74.3401 64.8603 73.8276 65.2232C73.9397 65.5457 74.0278 65.9004 74.1959 66.2149C74.3801 66.5696 74.6364 66.8841 74.5003 67.3275C74.4762 67.4162 74.5323 67.5372 74.5563 67.642C74.8206 66.489 75.0849 65.3602 75.3572 64.2234Z" fill="#20113D"/>
</g>
<defs>
<filter id="filter0_d" x="-9" y="-8" width="160" height="204" filterUnits="userSpaceOnUse" color-interpolation-filters="sRGB">
<feFlood flood-opacity="0" result="BackgroundImageFix"/>
<feColorMatrix in="SourceAlpha" type="matrix" values="0 0 0 0 0 0 0 0 0 0 0 0 0 0 0 0 0 0 127 0"/>
<feOffset dy="4"/>
<feGaussianBlur stdDeviation="15"/>
<feColorMatrix type="matrix" values="0 0 0 0 0.960784 0 0 0 0 0.501961 0 0 0 0 0.129412 0 0 0 0.7 0"/>
<feBlend mode="normal" in2="BackgroundImageFix" result="effect1_dropShadow"/>
<feBlend mode="normal" in="SourceGraphic" in2="effect1_dropShadow" result="shape"/>
</filter>
</defs>
</svg>
