<svg width="146" height="185" viewBox="0 0 146 185" fill="none" xmlns="http://www.w3.org/2000/svg">
<g filter="url(#filter0_d)">
<path d="M72.6643 33.167C53.2788 33.167 37.5942 48.1721 37.5942 66.6626C37.5942 85.1531 72.6643 138.143 72.6643 138.143C72.6643 138.143 107.734 85.1531 107.734 66.6626C107.734 48.1721 92.0497 33.167 72.6643 33.167Z" fill="white"/>
</g>
<path d="M64.3208 85.3649C67.1584 84.6937 68.9525 82.8097 70.77 80.8079C70.5237 80.7372 70.3361 80.6784 70.1485 80.6313C67.6509 79.9954 65.3527 78.9121 63.242 77.4402C61.9405 76.5335 60.8735 75.3913 60.0644 74.0018C59.9588 73.8252 59.8768 73.6368 59.7947 73.4484C59.7712 73.4013 59.7712 73.3424 59.7478 73.1776C60.5451 73.4249 61.2956 73.6604 62.0343 73.8959C62.0577 73.8723 62.0695 73.8605 62.0929 73.837C62.0108 73.7663 61.9405 73.6957 61.8584 73.6368C60.8969 73.0127 59.9588 72.3651 58.9856 71.7763C57.8717 71.0934 56.6991 70.5046 55.6203 69.7981C54.1781 68.8443 53.1579 67.502 52.4192 65.9476C52.384 65.877 52.3723 65.8063 52.3606 65.7357C52.3489 65.7004 52.3606 65.6533 52.3606 65.5473C53.5566 66.0654 54.6705 66.7955 56.0542 66.6659C53.3338 65.0998 51.6453 62.9097 51.7626 59.6126C52.9234 60.8961 54.0608 62.1678 55.1982 63.4395C55.2217 63.416 55.2568 63.3807 55.2803 63.3571C54.8113 62.4386 54.2602 61.5437 53.9084 60.5782C53.5566 59.6126 53.3221 58.5646 53.2048 57.5402C53.0876 56.5157 53.1814 55.4678 53.1814 54.4315C53.24 54.4198 53.2986 54.4198 53.3455 54.408C53.8967 55.6562 54.4478 56.9043 54.9989 58.1643C55.0575 58.1643 55.1161 58.1525 55.1748 58.1525C55.1513 55.8799 55.3975 53.6544 56.4411 51.6173C56.488 51.6173 56.5349 51.6173 56.5818 51.6291C56.5818 52.1354 56.6053 52.6299 56.5818 53.1363C56.4529 55.6208 57.4026 57.7404 58.8215 59.6715C59.7712 60.955 60.9438 62.0265 62.2102 62.9921C63.8752 64.2638 65.7396 65.194 67.604 66.1125C69.3394 66.9603 70.8638 68.1143 72.2943 69.4095C73.162 70.1985 74.0649 70.9403 74.956 71.7057C75.2023 71.9176 75.4485 72.1531 75.7299 72.4122C76.1872 71.3524 76.6094 70.3633 77.0315 69.3624C78.0516 66.9839 79.5877 64.9821 81.4873 63.2511C82.9999 61.8734 84.5359 60.5428 86.0486 59.1769C88.1006 57.3165 89.3787 55.0085 89.7891 52.2531C89.9415 51.2758 89.8711 50.2514 89.9063 49.2622C89.9063 49.0974 89.9063 48.9208 89.9649 48.7441C90.7037 50.4398 90.9147 52.2296 91.0906 54.0901C91.8176 52.6064 92.5329 51.1227 93.2599 49.6273C93.3185 49.6391 93.3771 49.6508 93.424 49.6626C93.3419 51.1816 93.3302 52.7006 93.1543 54.2078C92.9785 55.7033 92.6384 57.1751 92.3687 58.5999C92.7322 58.0347 93.1543 57.3871 93.6468 56.6453C93.682 58.0936 93.6351 59.4007 93.0254 60.637C92.4273 61.8617 91.4658 62.7801 90.4222 63.6868C90.9968 63.8046 91.4541 63.6044 91.8997 63.3807C92.3335 63.1687 92.7322 62.9097 93.2364 62.6153C93.1895 62.839 93.1661 62.9921 93.1192 63.1334C92.486 64.8526 91.501 66.3362 90.0236 67.4313C89.1207 68.1143 88.1592 68.7148 87.268 69.3978C86.7052 69.8334 86.3065 70.1043 86.2831 70.7048C86.6583 70.5753 87.0218 70.4575 87.4556 70.3162C86.7286 72.8126 84.8056 74.3433 83.1289 76.1332C83.293 76.2038 83.422 76.2509 83.551 76.3098C84.3835 76.6513 85.087 77.1694 85.5678 77.9465C85.9313 78.5235 86.0134 79.1358 85.8609 79.807C85.814 80.0072 85.9313 80.278 86.0603 80.4546C86.459 81.0669 86.5176 81.691 86.1658 82.3269C85.8258 82.951 85.2629 83.2571 84.5242 83.3042C85.1105 82.2445 85.0871 82.009 84.2897 81.4437C84.2076 81.8794 84.1255 82.2916 84.0435 82.7272C83.5158 82.2916 83.0585 81.7735 82.4839 81.4673C81.8977 81.1611 81.2058 81.0787 80.5023 80.8785C80.5375 81.0316 80.5375 81.1258 80.5726 81.2082C81.0886 82.5153 81.5693 83.8459 82.1556 85.1294C82.3667 85.6004 82.7888 86.0007 83.1758 86.354C83.5393 86.6837 83.7972 86.5659 83.9379 86.0832C84.0317 85.7417 84.0669 85.3884 84.1255 85.0469C84.1842 84.7408 84.3483 84.6113 84.5594 84.7055C84.6063 84.9881 84.6649 85.2118 84.6766 85.4355C84.6884 85.671 84.6884 85.9183 84.6415 86.142C84.5946 86.3422 84.4656 86.5306 84.3718 86.719C84.3952 86.7543 84.4304 86.7779 84.4539 86.8132C84.7705 86.6013 85.0988 86.3893 85.4036 86.1656C85.5561 86.0478 85.6733 85.8948 85.814 85.7652C86.3652 85.2589 86.6348 85.2942 87.0218 85.9654C86.8107 85.9419 86.6231 85.9065 86.4238 85.883C86.3886 86.7543 85.474 86.7426 85.0988 87.3313C85.5444 87.3078 85.943 87.2724 86.3417 87.2724C86.9514 87.2724 87.1977 87.5551 87.0804 88.1791C86.9045 87.7552 86.6114 87.8141 86.33 87.9319C85.732 88.1791 85.1222 88.0967 84.5125 88.0143C83.8441 87.9201 83.2461 88.0143 82.6716 88.4146C82.2963 88.6855 81.9094 88.9445 81.37 88.8268C81.2527 88.8032 81.0417 89.1918 80.8892 89.3802C80.643 89.0505 80.6547 88.7326 81.0651 88.4735C81.3231 88.3087 81.628 88.2262 81.9094 88.1085C82.0853 88.0378 82.2729 87.979 82.4253 87.8612C82.7654 87.6022 82.7654 87.4373 82.437 87.1782C81.628 86.5188 80.8189 85.8712 80.0098 85.2118C79.9395 85.1529 79.8574 85.1058 79.787 85.094C78.72 84.9998 78.1337 84.2933 77.6881 83.4337C77.5943 83.2453 77.524 82.9863 77.266 83.1511C77.1253 83.2453 76.9729 83.528 77.0198 83.6693C77.266 84.5995 77.8054 85.3295 78.6379 85.8006C79.0014 85.7417 79.0718 84.8468 79.5877 85.3884C79.5408 85.5886 79.5056 85.7064 79.4822 85.8241C79.6229 85.8477 79.7753 85.9065 79.916 85.8948C80.1505 85.8948 80.385 85.8477 80.6196 85.8241C80.6313 85.8712 80.643 85.9301 80.6547 85.9772C80.4906 86.0596 80.3264 86.142 80.1036 86.2598C81.2293 86.3187 81.2293 86.3187 81.2762 86.9192C80.9127 86.5659 80.5609 86.8485 80.2092 86.8956C79.4118 86.9898 78.8607 87.3666 78.5676 88.1556C78.4737 88.4029 78.2158 88.5795 77.9813 88.8503C77.993 88.8856 78.0282 89.0034 78.0516 89.1329C77.5474 88.9563 77.4302 88.709 77.6764 88.2616C77.864 87.9201 78.1102 87.6022 78.333 87.2724C78.5324 86.9781 78.5324 86.7308 78.1572 86.5659C77.5474 86.2951 77.0315 85.8594 76.3162 85.7888C76.0465 85.7652 75.812 85.4002 75.5423 85.1647C75.4133 85.3766 75.2374 85.6239 75.0967 85.9065C74.6863 86.7426 73.9945 87.2489 73.1268 87.4844C70.3947 88.238 67.8151 87.8141 65.4113 86.3187C65.0126 86.0832 64.7195 85.7181 64.3208 85.3649Z" fill="#20113D"/>
<g filter="url(#filter1_d)">
<path d="M73.0015 27.7485C50.0745 27.7485 31.5244 45.077 31.5244 66.4305C31.5244 87.7841 73.0015 148.979 73.0015 148.979C73.0015 148.979 114.479 87.7841 114.479 66.4305C114.479 45.077 95.9285 27.7485 73.0015 27.7485Z" stroke="white" stroke-width="3" stroke-miterlimit="10" stroke-linejoin="round"/>
</g>
<defs>
<filter id="filter0_d" x="7.59424" y="7.16699" width="130.14" height="164.976" filterUnits="userSpaceOnUse" color-interpolation-filters="sRGB">
<feFlood flood-opacity="0" result="BackgroundImageFix"/>
<feColorMatrix in="SourceAlpha" type="matrix" values="0 0 0 0 0 0 0 0 0 0 0 0 0 0 0 0 0 0 127 0"/>
<feOffset dy="4"/>
<feGaussianBlur stdDeviation="15"/>
<feColorMatrix type="matrix" values="0 0 0 0 1 0 0 0 0 1 0 0 0 0 1 0 0 0 0.5 0"/>
<feBlend mode="normal" in2="BackgroundImageFix" result="effect1_dropShadow"/>
<feBlend mode="normal" in="SourceGraphic" in2="effect1_dropShadow" result="shape"/>
</filter>
<filter id="filter1_d" x="0.0244141" y="0.248535" width="145.954" height="184.231" filterUnits="userSpaceOnUse" color-interpolation-filters="sRGB">
<feFlood flood-opacity="0" result="BackgroundImageFix"/>
<feColorMatrix in="SourceAlpha" type="matrix" values="0 0 0 0 0 0 0 0 0 0 0 0 0 0 0 0 0 0 127 0"/>
<feOffset dy="4"/>
<feGaussianBlur stdDeviation="15"/>
<feColorMatrix type="matrix" values="0 0 0 0 0 0 0 0 0 0 0 0 0 0 0 0 0 0 0.5 0"/>
<feBlend mode="normal" in2="BackgroundImageFix" result="effect1_dropShadow"/>
<feBlend mode="normal" in="SourceGraphic" in2="effect1_dropShadow" result="shape"/>
</filter>
</defs>
</svg>
