<svg width="141" height="182" viewBox="0 0 141 182" fill="none" xmlns="http://www.w3.org/2000/svg">
<g filter="url(#filter0_d)">
<path d="M70.6123 26.562C48.3304 26.562 30.3022 43.8072 30.3022 65.0582C30.3022 86.3092 70.6123 147.211 70.6123 147.211C70.6123 147.211 110.922 86.3092 110.922 65.0582C110.922 43.8072 92.8943 26.562 70.6123 26.562Z" fill="#F58021"/>
<path fill-rule="evenodd" clip-rule="evenodd" d="M81.8261 61.1612L81.8276 61.1642C82.3305 62.2017 82.8334 63.2392 83.3546 64.3226C83.2226 64.427 83.0889 64.5348 82.9532 64.6442L82.9531 64.6442C82.6466 64.8914 82.3299 65.1466 82 65.3887C81.6334 65.6562 81.2698 65.9275 80.9064 66.1987L80.9062 66.1988C80.0087 66.8685 79.1123 67.5374 78.1742 68.1458C74.7969 70.3422 71.0717 71.2337 67.0629 70.8845C66.0835 70.8018 65.0493 70.4617 64.6374 70.1768C64.8751 68.525 65.1035 66.9189 65.332 65.313L65.333 65.306C65.3056 65.2968 65.2759 65.2899 65.2462 65.283L65.2461 65.283C65.2163 65.2761 65.1866 65.2692 65.1591 65.26C65.0699 65.4418 64.9815 65.6236 64.8931 65.8051C64.6733 66.2569 64.4541 66.7074 64.2256 67.1532C63.632 68.3308 63.234 69.5814 62.8351 70.8347L62.8351 70.8347C62.7235 71.1855 62.6118 71.5365 62.4957 71.8862C61.7635 74.0643 60.4547 75.7369 58.2306 76.5548C58.1207 76.6008 58.0292 76.7846 57.9834 76.9225C57.8938 77.2083 57.8141 77.4974 57.7344 77.7863C57.6271 78.1756 57.5199 78.5645 57.3885 78.9443C56.8851 80.4148 55.9424 81.5544 54.6702 82.4274C54.1027 82.8134 53.5352 83.2086 52.9952 83.6313C52.5285 83.9898 52.5468 84.146 53.0044 84.5044C53.0939 84.5746 53.184 84.6437 53.2738 84.7127C53.5605 84.9327 53.8449 85.151 54.1027 85.3959C54.5237 85.8003 54.7159 86.3149 54.5603 86.9031C54.5237 87.0409 54.3132 87.2247 54.1851 87.2247C51.183 87.2431 48.1718 87.2431 45.1697 87.2339C45.0599 87.2339 44.9043 87.1972 44.8402 87.1236C44.7483 87.0112 44.6541 86.8993 44.5597 86.787L44.5597 86.7869C44.2218 86.3851 43.8804 85.9791 43.6229 85.5337C43.4582 85.2488 43.4399 84.7709 43.5497 84.4493C44.6114 81.2051 45.9752 78.1264 48.547 75.7645C48.6569 75.6634 48.7209 75.4428 48.7301 75.2866C48.7942 72.9523 49.0688 70.6363 49.6637 68.3847C50.1762 66.4364 50.7254 64.488 51.6956 62.6959C53.4803 59.4242 55.7868 56.6947 59.3289 55.2243C62.3767 53.9652 65.3513 54.1582 68.2527 55.647C68.651 55.8532 69.0113 56.136 69.3622 56.4114C69.5273 56.541 69.6904 56.669 69.8544 56.7866C69.5249 56.0698 68.9483 55.4816 68.3259 54.9394C68.9121 54.7155 69.5004 54.4988 70.0876 54.2825C72.6825 53.3268 75.2571 52.3785 77.5335 50.8497C77.6337 51.1998 77.7322 51.5534 77.8311 51.909L77.8313 51.9095C77.9583 52.3659 78.0863 52.8255 78.22 53.2851C78.2566 53.3954 78.3298 53.4965 78.4213 53.5884C78.2383 52.4488 78.2383 51.3092 78.6685 50.2615C79.0712 49.269 79.5563 48.2672 80.1786 47.4033C81.7071 45.308 83.5468 43.4883 85.597 41.8984L85.5971 41.8983C85.6795 41.834 85.7618 41.7697 85.8533 41.7054C86.0003 41.6112 86.1459 41.5108 86.2918 41.4103L86.2919 41.4102C87.0003 40.922 87.7159 40.4289 88.6265 40.6117C90.1276 40.9058 91.3815 41.6962 92.2418 42.992C92.489 43.3596 92.7727 43.617 93.1663 43.7548C94.1914 44.1132 94.9602 44.729 95.4544 45.7307C95.6336 46.0967 95.892 46.4209 96.1508 46.7455C96.2754 46.9018 96.4001 47.0583 96.5161 47.2195C96.7541 47.5504 96.7999 47.8261 96.5345 48.2121C96.3148 48.5337 96.205 48.9657 96.1409 49.3609C96.0585 49.8296 96.2416 50.1329 96.7358 50.3902C98.0263 51.0519 98.7769 52.5315 98.0629 54.0295C97.944 54.2777 97.8341 54.5258 97.7334 54.7831C97.2575 56.0146 96.3514 56.4466 95.1066 56.0146C95.0938 56.0103 95.0808 56.0061 95.0677 56.0018C95.0597 55.9992 95.0517 55.9966 95.0437 55.9939C94.9802 55.9733 94.9167 55.9526 94.8687 55.9319C94.6398 56.2536 94.411 56.566 94.1639 56.8969C94.1288 56.8538 94.0987 56.8224 94.0757 56.7984C94.0447 56.7661 94.0266 56.7473 94.0266 56.7315C94.0998 55.9411 93.6239 55.4724 93.093 54.9945C90.6127 52.7521 87.574 53.1564 85.4963 54.4523C85.7299 54.4047 85.9613 54.3528 86.1921 54.3011C86.6304 54.2027 87.0662 54.1049 87.5099 54.0387C90.1459 53.6711 92.4341 54.8566 93.6514 57.2277C94.4934 58.8636 95.0883 60.573 94.9419 62.4662L94.9403 62.4883V62.4884C94.9133 62.8592 94.8839 63.263 94.7314 63.5874C94.2005 64.727 94.3653 65.8758 94.6582 67.0062L94.7121 67.2168L94.7122 67.2169C94.987 68.2909 95.2691 69.3935 95.7931 70.3422C97.8158 73.9908 97.9806 77.9334 97.8341 81.9311C97.7701 83.6497 97.2209 85.1753 95.8114 86.2873C95.0243 86.9123 94.1822 87.3442 93.1297 87.2615C92.6446 87.2247 92.1503 87.2155 91.6652 87.2615C90.75 87.3626 90.1184 86.9031 89.5784 86.2598C88.9927 85.5705 88.7272 84.7709 88.892 83.8703C88.9377 83.6314 89.1116 83.3373 89.313 83.227C89.5659 83.0921 89.7506 83.2793 89.9378 83.469C89.9673 83.499 89.9969 83.529 90.0269 83.5578C90.309 83.8319 90.6815 84.0334 91.0366 84.2253L91.0367 84.2254L91.0429 84.2287C91.354 84.3941 91.5188 84.2563 91.5554 83.9071C91.592 83.4935 91.4639 83.1443 91.1527 82.8778C89.4045 81.3797 88.3062 79.4222 87.3177 77.3912C86.558 75.8196 86.073 74.1746 85.8991 72.4284C85.7709 71.1142 85.9997 69.8368 86.2469 68.5593C86.3658 67.9803 86.4848 67.3922 86.5214 66.7948C86.6038 65.6093 86.1919 64.6075 85.176 63.9734C83.9221 63.1922 82.8055 62.2548 81.9085 61.0785C81.9177 61.106 81.8719 61.1336 81.8261 61.1612ZM84.5078 65.3334C85.0387 65.7654 85.2309 66.2616 85.121 66.8774C85.0533 67.2756 84.9788 67.6726 84.9043 68.0697L84.9042 68.0699C84.7672 68.8001 84.6301 69.5305 84.5353 70.2686C84.2241 72.7591 84.8007 75.1118 85.7617 77.3818C85.9356 77.7954 85.9539 78.1263 85.7709 78.5398C84.938 80.433 84.0319 82.2803 82.8603 83.9988C81.341 86.2229 79.2176 87.2522 76.5633 87.2522C76.4064 87.2522 76.2504 87.2547 76.0947 87.2572H76.0947C75.7325 87.2629 75.3722 87.2687 75.0073 87.243C74.8243 87.2338 74.5955 87.1143 74.4948 86.9673C73.6436 85.8093 73.79 83.4107 74.7694 82.3538C74.8792 82.2343 75.1263 82.124 75.2636 82.17C75.368 82.2074 75.442 82.3667 75.5104 82.514C75.5259 82.5475 75.5412 82.5804 75.5565 82.6111C75.5943 82.6869 75.6217 82.7705 75.649 82.8536C75.6945 82.9921 75.7396 83.1292 75.8311 83.2268C75.9958 83.4198 76.2796 83.6956 76.4626 83.6588C76.6548 83.622 76.847 83.282 76.9294 83.043C77.0118 82.8133 76.9843 82.5284 76.9386 82.2894C76.8722 81.953 76.789 81.6189 76.706 81.2855C76.56 80.6992 76.4145 80.1149 76.3619 79.5232C76.1148 76.8672 76.3528 74.2572 77.4969 71.8034C77.7623 71.2428 78.0643 70.673 78.4579 70.1951C78.8698 69.6804 79.3823 69.2301 79.904 68.8257C80.4394 68.4033 80.991 68.0039 81.5434 67.6039C81.9165 67.3338 82.29 67.0633 82.659 66.7855C83.0704 66.471 83.4778 66.1482 83.8921 65.8199L83.8922 65.8199L83.8926 65.8195C84.0956 65.6587 84.3002 65.4966 84.5078 65.3334ZM64.8366 71.8675C64.6016 71.7977 64.3654 71.7275 64.1249 71.6565C64.0433 71.8339 63.9643 72.0138 63.885 72.1944C63.7507 72.5003 63.6155 72.808 63.4659 73.1086C62.5598 74.9466 61.3699 76.5457 59.5302 77.575C59.3838 77.6577 59.2831 77.8691 59.2282 78.0437C58.7889 79.5234 58.2397 80.9387 57.2238 82.1334C57.1505 82.2253 57.0865 82.3907 57.1139 82.4918C57.4343 83.5119 57.7638 84.5321 58.1207 85.5338C58.1848 85.7084 58.377 85.8738 58.5509 85.9749C59.2007 86.3425 59.8506 86.701 60.5187 87.041C60.7384 87.1513 60.9947 87.2524 61.2326 87.2524C63.168 87.2662 65.0982 87.2644 67.031 87.2627C67.6758 87.2621 68.3209 87.2616 68.9666 87.2616H69.5341C69.4725 87.1349 69.4224 87.0113 69.3749 86.8943C69.2812 86.6634 69.1979 86.4583 69.0582 86.3058C68.7104 85.929 68.3168 85.5705 67.8958 85.2857C67.5004 85.0186 67.0712 84.7969 66.6435 84.576C66.5267 84.5156 66.4099 84.4553 66.294 84.3942C65.8364 84.1461 65.6351 83.7785 65.6717 83.2638C65.6778 83.1413 65.692 83.0187 65.7062 82.8962C65.7134 82.8349 65.7205 82.7737 65.7266 82.7124C65.7546 82.4341 65.7894 82.155 65.8243 81.8756C65.9035 81.2413 65.9829 80.6053 65.9829 79.9737C65.9829 78.6595 65.3971 77.5291 64.5642 76.5365C66.0103 75.4521 66.294 73.9173 66.4313 72.3366C65.8813 72.1779 65.3618 72.0235 64.8366 71.8675Z" fill="#20113D"/>
</g>
<defs>
<filter id="filter0_d" x="-9" y="-8" width="160" height="204" filterUnits="userSpaceOnUse" color-interpolation-filters="sRGB">
<feFlood flood-opacity="0" result="BackgroundImageFix"/>
<feColorMatrix in="SourceAlpha" type="matrix" values="0 0 0 0 0 0 0 0 0 0 0 0 0 0 0 0 0 0 127 0"/>
<feOffset dy="4"/>
<feGaussianBlur stdDeviation="15"/>
<feColorMatrix type="matrix" values="0 0 0 0 0.960784 0 0 0 0 0.501961 0 0 0 0 0.129412 0 0 0 0.7 0"/>
<feBlend mode="normal" in2="BackgroundImageFix" result="effect1_dropShadow"/>
<feBlend mode="normal" in="SourceGraphic" in2="effect1_dropShadow" result="shape"/>
</filter>
</defs>
</svg>
