<svg width="141" height="182" viewBox="0 0 141 182" fill="none" xmlns="http://www.w3.org/2000/svg">
<g filter="url(#filter0_d)">
<path d="M70.6123 26.562C48.3304 26.562 30.3022 43.8072 30.3022 65.0582C30.3022 86.3092 70.6123 147.211 70.6123 147.211C70.6123 147.211 110.922 86.3092 110.922 65.0582C110.922 43.8072 92.8943 26.562 70.6123 26.562Z" fill="#F58021"/>
<path fill-rule="evenodd" clip-rule="evenodd" d="M79.0579 62.3932C80.3131 60.8611 81.0329 59.1684 81.0637 57.2038C81.0679 56.99 81.2193 56.7792 81.37 56.5692L81.3701 56.5691C81.4415 56.4696 81.5128 56.3702 81.5682 56.2709C81.8614 55.7387 82.1736 55.2134 82.4859 54.6878C83.196 53.4929 83.907 52.2964 84.3984 51.0135C85.469 48.2149 84.823 46.4975 82.4973 44.712C82.6449 42.8401 83.3833 41.5551 85.4382 41.1845C86.4108 41.0104 87.3543 40.6729 88.3847 40.3043C88.8534 40.1366 89.3402 39.9625 89.8558 39.7944C88.3115 44.4711 86.8472 48.9007 85.3152 53.5341L85.6729 53.4575L85.675 53.457C87.6684 53.0302 89.4922 52.6396 91.3324 52.2491C91.8 53.0831 91.437 53.5217 90.7295 53.9233L90.3071 54.1613L90.3071 54.1613C88.4963 55.1814 86.6805 56.2043 84.9337 57.3335C84.3492 57.7104 83.8447 58.3899 83.5801 59.0386C83.1455 60.1144 82.7922 61.2234 82.4296 62.3615L82.4294 62.3621C82.2736 62.8511 82.1161 63.3456 81.9497 63.845L79.0579 62.3932ZM84.4045 62.1469C86.2072 63.4937 86.964 66.3911 86.1396 68.6028C85.4197 70.5241 83.7523 71.4385 81.2667 71.1543C80.5518 71.0712 79.8484 70.9118 79.1453 70.7525L79.1453 70.7525L79.1452 70.7525L79.1452 70.7525C78.6986 70.6513 78.2521 70.5501 77.8027 70.4685C75.2433 69.9928 73.0529 70.3512 71.564 71.5003C71.9085 71.5435 72.2039 71.5806 72.653 71.6362C72.2684 72.3631 72.0728 73.1509 71.8832 73.9144C71.6087 75.0196 71.3468 76.074 70.5426 76.8194C71.001 77.1412 71.4904 77.4579 71.9911 77.7819C73.1435 78.5277 74.3553 79.3119 75.3848 80.2852C77.7781 82.5463 77.6305 85.9257 75.2802 88.4277C74.5751 88.178 73.8689 87.9283 73.162 87.6783L73.1602 87.6776C70.4749 86.728 67.7781 85.7743 65.0853 84.8013C64.6387 84.639 64.2127 84.4177 63.787 84.1965C63.5968 84.0977 63.4067 83.999 63.2149 83.9055C60.4277 82.5649 58.9819 80.3161 58.7358 77.2457C58.422 73.3598 59.1787 69.616 60.0709 65.9092C60.1317 65.8975 60.1818 65.8822 60.2236 65.8694C60.2919 65.8486 60.338 65.8345 60.3723 65.8536C66.4142 68.9797 71.9762 67.5649 77.2367 63.9447C78.1288 63.3331 78.8056 63.3022 79.6608 63.7532C80.1654 64.0188 80.676 64.2721 81.1929 64.5069C82.6756 65.1802 83.3463 64.9146 83.9431 63.4072C84.0422 63.1545 84.1342 62.8971 84.228 62.635L84.2282 62.6343C84.2857 62.4736 84.3438 62.3112 84.4045 62.1469ZM78.1993 75.3123C78.5946 74.1093 79.0061 72.8574 79.4457 71.5172C78.9879 71.5024 78.5442 71.4866 78.1111 71.4711L78.1101 71.4711L78.1093 71.471C76.733 71.4219 75.464 71.3766 74.1914 71.3813C73.9207 71.3813 73.5085 71.7149 73.41 71.9867C73.0102 73.1136 72.6506 74.2539 72.304 75.353C72.1813 75.7422 72.0602 76.1263 71.9395 76.5028L73.1533 77.3928L73.1537 77.3931C74.331 78.2566 75.477 79.0971 76.6709 79.9686C77.1702 78.4432 77.6696 76.924 78.1976 75.3174L78.1982 75.3154L78.1993 75.3123ZM65.9038 93.7085C66.6791 91.3979 67.3989 89.2542 68.1619 86.9869C70.063 87.5862 71.8596 88.1545 73.7792 88.7662C73.6753 89.0883 73.5737 89.4053 73.4735 89.7181C73.0934 90.9051 72.7326 92.0315 72.3333 93.1463C72.2472 93.381 71.8965 93.6776 71.6627 93.6838C70.2451 93.7169 68.8203 93.7138 67.3138 93.7105C66.8522 93.7095 66.3829 93.7085 65.9038 93.7085ZM57.4476 54.4518L57.4477 54.4519C58.011 55.3225 58.5581 56.1681 58.9512 57.0807C59.6772 58.7796 59.991 60.6947 58.5636 62.1527C57.0993 63.6416 55.2781 62.9806 53.6538 62.2639C52.7001 61.8438 51.7649 61.2693 50.9774 60.5835C47.9811 57.9579 48.2764 53.9485 51.605 51.7491C53.7953 50.3035 56.201 50.0811 58.6251 50.9522C59.6772 51.329 60.2679 51.051 61.0923 50.4271C62.4767 49.383 63.9656 48.3884 65.553 47.715C68.457 46.4794 71.2934 46.8562 73.8775 48.7467C74.4497 49.1668 75.028 49.5745 75.7663 49.7969C75.2618 49.1853 74.7573 48.5799 74.1851 47.8941C76.117 46.1272 78.2397 45.0894 80.8546 45.528C82.7065 45.8369 83.7032 47.0848 83.6602 48.9629C83.611 51.2302 82.4789 53.0465 81.2422 54.8628C78.8488 52.4905 78.1536 49.7042 79.3595 47.6099C78.1905 47.8571 77.5875 48.5799 77.8398 49.8711C78.0859 51.1375 78.492 52.4102 79.0457 53.5716C80.6085 56.8644 80.1224 60.1078 77.323 62.4246C73.5268 65.5753 69.1277 66.4587 64.3655 65.2479C63.4488 65.0131 62.5751 64.4756 61.7814 63.9258C60.8401 63.2771 60.4032 62.4307 60.5509 61.1148C60.6986 59.7372 60.5017 58.2545 60.151 56.8953C59.6834 55.1161 58.4282 53.9114 56.6809 53.238C56.9312 53.6536 57.1911 54.0553 57.4476 54.4518ZM74.7312 62.9807C74.7441 62.9248 74.7555 62.868 74.7657 62.8107C74.8164 62.5237 74.8359 62.221 74.8549 61.9263L74.8549 61.926C74.8628 61.8039 74.8706 61.6831 74.8805 61.5654C74.8128 59.7552 74.296 58.1428 72.9547 56.9196C71.7734 55.8446 70.6105 56.1968 70.2291 57.7474L70.2153 57.8048C70.194 57.8957 70.1747 57.9864 70.1576 58.0767C69.8476 59.7142 70.2355 61.2515 71.1642 62.6531L71.1952 62.6999C71.3027 62.8619 71.4131 63.0283 71.5292 63.1897C72.0274 63.8834 72.6306 64.4862 73.5613 64.2469C73.5905 64.2395 73.62 64.2314 73.6498 64.2223C74.3238 64.0173 74.6023 63.5399 74.7312 62.9807ZM68.0895 57.8507L68.0895 57.8507C67.8078 57.5898 67.5919 57.39 67.4295 57.4266C67.1803 57.4827 66.9761 57.7317 66.7708 57.982C66.6821 58.09 66.5933 58.1984 66.5005 58.2915C66.5909 58.3748 66.6796 58.476 66.7684 58.5772C66.9694 58.8066 67.1707 59.0362 67.3926 59.0576C67.5884 59.0781 67.8058 58.8977 68.0896 58.6621L68.0896 58.6621C68.234 58.5423 68.3955 58.4083 68.5801 58.2792C68.3979 58.1362 68.2349 57.9853 68.0895 57.8507ZM76.64 55.8698L76.6397 55.8696L76.6401 55.8693C76.419 55.7319 76.2354 55.5995 76.0766 55.4851L76.0766 55.485C75.7716 55.2651 75.5585 55.1115 75.3481 55.1156C75.3427 55.1157 75.3372 55.116 75.3316 55.1165C75.0588 55.1345 74.5732 55.6188 74.6097 55.8018C74.6773 56.1293 75.0465 56.5741 75.348 56.6297C75.3759 56.6344 75.4044 56.635 75.4337 56.6318C75.5677 56.6187 75.7206 56.5227 75.9119 56.3842C75.9619 56.3482 76.0145 56.3092 76.07 56.268C76.2321 56.1479 76.4192 56.0092 76.64 55.8698Z" fill="#20113D"/>
</g>
<defs>
<filter id="filter0_d" x="-9" y="-8" width="160" height="204" filterUnits="userSpaceOnUse" color-interpolation-filters="sRGB">
<feFlood flood-opacity="0" result="BackgroundImageFix"/>
<feColorMatrix in="SourceAlpha" type="matrix" values="0 0 0 0 0 0 0 0 0 0 0 0 0 0 0 0 0 0 127 0"/>
<feOffset dy="4"/>
<feGaussianBlur stdDeviation="15"/>
<feColorMatrix type="matrix" values="0 0 0 0 0.960784 0 0 0 0 0.501961 0 0 0 0 0.129412 0 0 0 0.7 0"/>
<feBlend mode="normal" in2="BackgroundImageFix" result="effect1_dropShadow"/>
<feBlend mode="normal" in="SourceGraphic" in2="effect1_dropShadow" result="shape"/>
</filter>
</defs>
</svg>
