<svg width="141" height="182" viewBox="0 0 141 182" fill="none" xmlns="http://www.w3.org/2000/svg">
<g filter="url(#filter0_d)">
<path d="M70.6123 26.562C48.3304 26.562 30.3022 43.8072 30.3022 65.0582C30.3022 86.3092 70.6123 147.211 70.6123 147.211C70.6123 147.211 110.922 86.3092 110.922 65.0582C110.922 43.8072 92.8943 26.562 70.6123 26.562Z" fill="#F58021"/>
<path fill-rule="evenodd" clip-rule="evenodd" d="M69.9437 42.008C70.8064 41.9589 71.6291 42.1392 72.4758 42.4424C72.4478 42.5237 72.4219 42.6035 72.3964 42.682L72.3964 42.6821C72.3346 42.8726 72.2754 43.0549 72.1962 43.229C71.9527 43.7657 71.7051 44.3023 71.4576 44.8389L71.4574 44.8393C71.2098 45.3761 70.9621 45.9128 70.7185 46.4496L70.7178 46.4511L70.7178 46.4511C70.586 46.7421 70.5221 46.883 70.4137 46.9419C70.3119 46.9972 70.1708 46.9802 69.8972 46.9472L69.8479 46.9412C69.5683 46.9085 69.4006 46.7855 69.3606 46.5069C69.3437 46.3896 69.3222 46.2716 69.3008 46.1536L69.3008 46.1536L69.3008 46.1535L69.3007 46.1535L69.3007 46.1535L69.3007 46.1534L69.3007 46.1534L69.3007 46.1534L69.3007 46.1533C69.2413 45.8263 69.1816 45.4984 69.2168 45.1794C69.305 44.391 69.4478 43.6078 69.5905 42.8256L69.5905 42.8251L69.5906 42.8247C69.6288 42.6153 69.667 42.4059 69.7041 42.1965C69.7201 42.1228 69.8559 42.0162 69.9437 42.008ZM64.5605 44.6623L64.5607 44.6626C65.0903 45.4707 65.6086 46.2614 66.1494 47.0382C66.3491 47.3332 66.6207 47.5955 67.06 47.4152C67.731 47.1529 67.8987 46.9727 67.699 46.2515C67.4601 45.375 67.6084 44.5321 67.7572 43.6863L67.7572 43.6862L67.7572 43.6861L67.7572 43.686L67.7573 43.6859L67.7573 43.6858L67.7573 43.6857L67.7573 43.6856L67.7573 43.6855L67.7573 43.6854L67.7574 43.6853L67.7574 43.6852L67.7574 43.6851L67.7574 43.685C67.7727 43.5982 67.788 43.5113 67.8028 43.4244C67.8588 43.113 67.8508 42.7688 67.7789 42.4574C67.7469 42.3099 67.4594 42.0886 67.3475 42.1132C66.1254 42.4246 65.0551 43.0392 64.0327 43.8587C64.2107 44.1285 64.3862 44.3964 64.5605 44.6623ZM61.4218 50.9134C61.9814 51.3326 62.5427 51.753 63.1138 52.1785C62.9221 53.1209 62.4269 53.6535 61.4604 53.7601C60.1265 53.8994 59.0002 53.3421 57.9858 52.5063C57.9298 52.4571 57.9059 52.2768 57.9458 52.1949C58.0052 52.0594 58.0643 51.9236 58.1234 51.7878C58.3825 51.1924 58.6421 50.5956 58.9283 50.0151C59.0051 49.8518 59.1309 49.7157 59.2514 49.5853L59.2514 49.5853L59.2514 49.5853L59.2514 49.5853C59.3063 49.5259 59.3601 49.4677 59.4076 49.4087C60.0861 49.9129 60.7528 50.4123 61.4218 50.9134ZM61.7803 55.9233C60.2706 55.5382 58.8089 55.1612 57.2353 54.7515C57.2016 54.9417 57.1639 55.138 57.1255 55.3385L57.1254 55.3386C57.0545 55.7084 56.9808 56.0927 56.9238 56.4805C56.8691 56.8478 56.833 57.2183 56.7962 57.5958C56.7738 57.8248 56.7512 58.0564 56.7241 58.2916C57.9862 58.939 59.2801 59.1192 60.5582 58.3653C61.4688 57.8409 61.8282 56.9722 61.7803 55.9233ZM56.78 60.2657C56.5404 61.5605 56.7321 62.7815 57.1794 63.9697C57.2194 64.0681 57.3232 64.1746 57.4191 64.2074C59.3041 64.8547 61.4289 63.56 61.7244 61.8145C61.7643 61.5769 61.7803 61.3228 61.7643 61.0852C61.6685 60.0445 61.4768 59.897 60.4863 60.0445L60.201 60.087C59.5212 60.1885 58.8406 60.2902 58.1539 60.3477C57.8523 60.3702 57.5431 60.3386 57.2238 60.306H57.2238H57.2237H57.2237C57.078 60.2911 56.9302 60.276 56.78 60.2657ZM62.1476 67.9525C62.7866 66.5594 62.587 65.5596 61.5086 64.691C60.3903 65.5596 59.0963 65.8792 57.7065 65.9284C57.6106 65.9284 57.4509 66.0677 57.4269 66.1742C57.2113 67.2149 57.5148 68.1409 58.0819 68.9932C58.1273 69.0605 58.2142 69.0951 58.3122 69.1341L58.3123 69.1342L58.3124 69.1342C58.3695 69.157 58.4305 69.1813 58.4893 69.2144C58.4616 69.2334 58.4346 69.2523 58.4079 69.271C58.342 69.3172 58.2779 69.3621 58.2097 69.4029C56.756 70.2961 55.5818 71.468 54.8869 73.066C53.9763 75.172 53.6488 77.3436 54.4715 79.5807C54.6196 79.9829 54.7558 80.3923 54.8918 80.8011L54.8918 80.8012L54.8918 80.8012L54.8918 80.8012L54.8918 80.8013L54.8918 80.8013L54.8918 80.8013L54.8919 80.8014L54.8919 80.8014L54.8919 80.8014L54.8919 80.8015L54.8919 80.8015L54.8919 80.8015L54.8919 80.8016L54.8919 80.8016L54.8919 80.8016L54.892 80.8017L54.892 80.8017C55.0053 81.1424 55.1185 81.4827 55.2383 81.8179C55.6377 82.9488 55.6696 84.1124 55.3501 85.2433C54.4076 88.5457 55.2942 91.5778 56.5483 94.5689C56.6583 94.8189 56.838 95.045 57.0112 95.263L57.0196 95.2736C57.2592 95.5768 57.5707 95.6751 57.9461 95.544C58.3215 95.4047 58.5931 95.1507 58.5772 94.7491C58.5612 94.2329 58.4973 93.7166 58.3775 93.2167C58.2856 92.8193 58.1738 92.426 58.062 92.0327L58.0619 92.0326C57.9501 91.6392 57.8383 91.2459 57.7464 90.8485C57.4908 89.7258 57.8183 88.7998 58.7129 88.1032C58.7512 88.0744 58.7887 88.0448 58.8259 88.0154C58.9051 87.9527 58.9829 87.8912 59.0644 87.841C60.4143 87.0461 61.245 85.8005 61.932 84.4156C62.1238 84.022 62.372 83.6554 62.6199 83.2894L62.6199 83.2893C62.7333 83.1219 62.8466 82.9546 62.9544 82.7849L63.0502 82.834C63.0982 83.0635 63.1471 83.2929 63.196 83.5224C63.3428 84.2107 63.4896 84.8991 63.6094 85.5875C64.1445 88.5785 65.8699 90.8321 67.8668 92.9299C68.0637 93.1401 68.3229 93.2944 68.5675 93.4401L68.5777 93.4462C68.9132 93.651 69.2566 93.651 69.5761 93.3806C69.9036 93.102 70.0234 92.7496 69.8797 92.3563C69.7359 91.9793 69.5522 91.6106 69.3285 91.2746C69.0966 90.9309 68.8462 90.6014 68.5959 90.2721L68.5959 90.2721C68.3807 89.989 68.1657 89.7061 67.9626 89.4144C67.0121 88.0541 66.9722 87.0953 67.9067 85.735C68.6496 84.6451 69.1608 83.4568 69.6161 82.1703C69.7432 82.2309 69.8681 82.2871 69.9905 82.3421L69.9906 82.3421L69.9907 82.3422L69.9908 82.3423C70.1989 82.4358 70.3995 82.526 70.5906 82.6292C72.5555 83.7273 73.7617 85.4563 74.4806 87.5788C74.7725 88.4253 75.0242 89.2874 75.2755 90.1485L75.2755 90.1485C75.3405 90.3711 75.4054 90.5935 75.471 90.8157C75.7027 91.6024 76.0781 92.2989 76.5893 92.9217C76.7753 93.1469 76.9612 93.3721 77.1469 93.5972L77.1543 93.6062L77.1617 93.6151L77.1689 93.6239L77.1738 93.6299C78.0876 94.7373 78.9997 95.8428 79.9281 96.9371C80.1917 97.2485 80.5112 97.5435 80.8547 97.7648C81.4777 98.1663 82.0848 98.0434 82.6599 97.478C83.0753 97.0682 83.1472 96.5602 82.7717 95.9128C82.5564 95.5399 82.2786 95.202 82.0054 94.8695L82.0047 94.8687L82.004 94.8678L82.0037 94.8674C81.9532 94.806 81.9029 94.7448 81.8532 94.6836C81.6934 94.4869 81.5097 94.2984 81.318 94.1345C79.6965 92.7168 79.2971 90.8403 79.369 88.7834C79.3806 88.438 79.4217 88.0927 79.4617 87.7567L79.4618 87.7566L79.4618 87.7565C79.4768 87.6302 79.4917 87.5052 79.5048 87.3821C79.7544 87.3332 80.001 87.2843 80.2422 87.2364L80.2445 87.236L80.2451 87.2359C80.69 87.1476 81.1166 87.063 81.5097 86.9888C81.6586 87.3254 81.7979 87.6694 81.9375 88.014L81.9376 88.014L81.9376 88.0142C82.2398 88.7601 82.5432 89.5091 82.9475 90.1929C83.5421 91.2009 84.2467 92.1391 84.951 93.077C85.117 93.2981 85.283 93.5192 85.4476 93.7412C85.7272 94.1181 86.1026 94.4213 86.6138 94.2984C86.8854 94.2329 87.0931 93.479 86.9573 92.9463C86.8295 92.4464 86.6777 91.9384 86.4301 91.4958C85.3278 89.5045 84.9044 87.3165 84.6089 85.0958C84.4571 83.9649 83.8021 83.4568 82.6998 83.6781C80.639 84.096 78.5702 84.3009 76.4695 84.1124C76.3257 84.096 76.1819 84.0632 76.0381 84.0305C74.5524 83.6699 73.9614 82.2604 74.7282 80.8919C74.7521 80.8427 74.7761 80.7936 74.816 80.7526C75.5302 80.0139 75.9172 79.0963 76.3059 78.1749C76.4432 77.8493 76.5808 77.5231 76.7331 77.2043C77.0366 76.5815 77.6117 76.057 78.1629 75.5981C78.8418 75.0409 79.6725 74.7623 80.5272 74.5738C80.647 74.5492 80.8228 74.4345 80.8467 74.3361C80.8707 74.2214 80.7748 74.0083 80.679 73.9592C80.618 73.9297 80.5566 73.8993 80.495 73.8688C80.1287 73.6874 79.7507 73.5002 79.361 73.4511C78.722 73.3692 78.059 73.3856 77.412 73.4511C76.6931 73.5249 76.0541 73.2954 75.4551 73.0004C74.816 72.689 74.209 72.2629 73.6339 71.8368C72.0603 70.6649 70.4708 69.5258 68.6655 68.7473C66.7325 67.9033 64.7276 67.6247 62.6509 67.9361C62.4991 67.9197 62.3313 67.9279 62.1476 67.9525ZM70.9102 66.3705C70.2712 66.7803 69.5763 66.9606 68.8255 66.9606C68.1066 66.936 67.4196 66.7885 66.8365 66.3296C66.1895 65.8297 65.9419 65.0922 66.3173 64.3792C66.557 63.9306 66.8909 63.5373 67.2249 63.1439L67.2249 63.1439C67.3363 63.0128 67.4476 62.8817 67.5554 62.7485C67.6113 62.6829 67.7471 62.6584 67.843 62.6666C69.5763 62.8386 70.9182 64.0597 71.2297 65.6003C71.3096 65.9772 71.2058 66.1821 70.9102 66.3705ZM62.2356 45.2944C63.1462 45.9992 64.4243 47.6053 65.2949 49.1214L65.2051 49.2379C64.9991 49.5053 64.8045 49.7578 64.616 50.0228C64.4482 50.2604 64.2485 50.3178 63.961 50.2276C62.4833 49.7442 61.4688 48.6625 60.3985 47.4988C61.021 46.7537 61.6276 46.025 62.2342 45.2962L62.2356 45.2944ZM74.696 50.3261C75.3542 49.7445 76.1559 49.6428 76.9624 49.5406L76.9624 49.5406L76.9625 49.5406L76.9625 49.5406L76.9625 49.5406L76.9625 49.5406L76.9625 49.5406L76.9626 49.5406L76.9626 49.5406L76.9626 49.5406L76.9626 49.5405L76.9626 49.5405C77.1446 49.5175 77.3268 49.4944 77.5077 49.4657C77.923 49.4001 78.3384 49.2772 78.7378 49.1461C78.8257 49.1133 78.9535 48.9494 78.9375 48.8675C78.8177 48.0562 78.57 47.2941 77.9071 46.7696C77.7952 46.6795 77.6115 46.6221 77.4837 46.6385C76.5092 46.7942 75.6066 47.1384 74.7999 47.7202C74.704 47.794 74.6082 47.8677 74.5203 47.9497C73.6896 48.7364 73.7455 49.6296 74.696 50.3261ZM75.0079 63.7728C74.2011 62.2977 70.6865 60.8882 69.7759 61.6831C69.7759 61.7077 69.7759 61.7487 69.7919 61.7569C70.8782 62.7239 71.661 63.9449 72.4199 65.1823C72.6036 65.4855 72.7873 65.5019 73.0748 65.4035C73.7458 65.1741 74.5126 64.5349 75.0079 63.7728ZM80.3754 79.6793C80.2556 80.3103 80.008 80.4987 79.3689 80.5151C79.2568 80.4937 79.1446 80.4767 79.0329 80.4597H79.0329L79.0329 80.4597L79.0328 80.4597L79.0328 80.4597L79.0327 80.4597L79.0327 80.4597C78.8026 80.4247 78.575 80.3902 78.3545 80.3185C77.6356 80.0972 77.3241 79.5809 77.4599 78.8188C77.5078 78.5402 77.6117 78.2698 77.7315 78.0158C78.1628 77.1225 78.8737 76.4915 79.6884 75.9835C79.968 75.8114 80.3035 75.7048 80.623 75.6475C80.7707 75.6183 80.9345 75.6596 81.0973 75.7007C81.1634 75.7174 81.2293 75.734 81.294 75.7458C81.2804 75.806 81.2701 75.8694 81.2597 75.9331C81.2333 76.0951 81.2065 76.2592 81.1262 76.3768C80.6629 77.057 80.5272 77.8191 80.4872 78.6222C80.4712 78.9745 80.4393 79.3351 80.3754 79.6793ZM78.6782 78.5248C78.4265 78.6229 78.2364 78.8804 78.2427 79.163C78.2507 79.5318 78.5542 79.8268 78.9136 79.8186C78.9899 79.8168 79.0624 79.8019 79.1293 79.776C79.0622 79.8016 78.9897 79.8164 78.9138 79.8182C78.5544 79.8264 78.2509 79.5314 78.2429 79.1626C78.2429 78.8803 78.4289 78.6232 78.6782 78.5248ZM75.8631 52.6817L75.8636 52.6818L75.8637 52.6818L75.8639 52.6818C77.0804 52.7846 78.2725 52.8854 79.4647 52.9965C79.8161 53.0293 79.928 52.89 79.9599 52.554C80.0238 51.8329 79.7842 51.2675 79.1931 50.8741C78.1946 50.2185 76.4134 50.3333 75.5028 51.12C75.0395 51.5133 74.8398 52.0132 74.9357 52.6032C75.2466 52.6296 75.5557 52.6558 75.8631 52.6817ZM74.2168 43.1724C75.1753 43.705 76.0859 44.2459 76.7249 45.1719C75.2552 46.0569 73.8334 46.9173 72.4116 47.786C72.148 47.3599 72.116 47.073 72.3077 46.4748C72.6722 45.3226 73.3621 44.3623 74.0615 43.3887L74.0618 43.3883L74.0624 43.3874C74.1139 43.3158 74.1654 43.2442 74.2168 43.1724ZM72.0446 60.1926C73.0409 60.5401 73.8415 61.1682 74.6575 61.8083C75.15 62.1946 75.648 62.5853 76.1981 62.9215C76.2722 62.8018 76.346 62.683 76.4194 62.565L76.4222 62.5605L76.4223 62.5603L76.423 62.5593L76.423 62.5592L76.4232 62.5589C76.7201 62.0811 77.01 61.6148 77.2845 61.1432C77.3244 61.0777 77.3004 60.8892 77.2365 60.84C76.1981 60.0041 75.0799 59.3322 73.714 59.2666C73.035 59.2502 72.428 59.4305 72.0446 60.1926ZM79.6407 54.753C79.6247 55.4243 79.6084 56.1119 79.1854 56.6768C79.0194 56.6208 78.8552 56.5642 78.6921 56.5079L78.6921 56.5079L78.6921 56.5079L78.6921 56.5079L78.6919 56.5078C78.2587 56.3584 77.8336 56.2118 77.4042 56.0868C76.6454 55.8819 75.8865 55.6935 75.1197 55.5214C74.8322 55.4558 74.7683 55.3083 74.8082 55.0297C74.9121 54.2594 75.4313 53.7841 76.3099 53.7513C77.4361 53.7021 78.4745 54.0873 79.489 54.5462C79.5609 54.579 79.6407 54.6855 79.6407 54.7511L79.6407 54.753ZM76.821 79.6948C76.6505 79.9087 76.498 80.0967 76.3557 80.272C76.1981 80.4662 76.0532 80.6448 75.9104 80.8257C75.8615 80.8879 75.8104 80.9488 75.7595 81.0094C75.6362 81.1564 75.5137 81.3024 75.4232 81.4649C75.1277 81.9893 75.2714 82.563 75.8146 82.8006C76.2459 82.9891 76.7252 83.112 77.1885 83.1612C78.4266 83.3005 79.6487 83.1776 80.8468 82.8088C80.7669 82.2352 80.5113 81.9729 79.9522 81.9156C79.6731 81.89 79.3909 81.8804 79.1094 81.8708L79.1092 81.8708L79.1089 81.8708L79.1086 81.8708C78.9393 81.865 78.7702 81.8593 78.6023 81.85C77.516 81.7845 77.3402 81.6124 77.1246 80.5307C77.0871 80.3493 77.0137 80.1717 76.9356 79.9829C76.8973 79.8901 76.8579 79.7947 76.821 79.6948ZM77.8276 59.6593C76.5496 58.9791 75.2476 58.3891 73.8018 58.0941C74.0095 57.0452 74.6884 56.5781 75.7588 56.7174C76.8371 56.8485 77.7956 57.3074 78.6743 57.9384C78.7621 58.004 78.874 58.1515 78.85 58.217C78.6743 58.6759 78.4906 59.143 78.2589 59.5773C78.211 59.6593 77.9314 59.7167 77.8276 59.6593ZM81.3338 77.9576C81.3338 78.8098 81.4696 78.9492 82.1086 78.8262C82.3722 78.7771 82.6518 78.6623 82.8674 78.4985C83.6982 77.8675 83.9298 76.3433 83.3547 75.4992C83.2189 75.3025 83.0991 75.2206 82.8754 75.3845C81.9489 76.081 81.3737 76.9579 81.3338 77.9576Z" fill="#20113D"/>
</g>
<defs>
<filter id="filter0_d" x="-9" y="-8" width="160" height="204" filterUnits="userSpaceOnUse" color-interpolation-filters="sRGB">
<feFlood flood-opacity="0" result="BackgroundImageFix"/>
<feColorMatrix in="SourceAlpha" type="matrix" values="0 0 0 0 0 0 0 0 0 0 0 0 0 0 0 0 0 0 127 0"/>
<feOffset dy="4"/>
<feGaussianBlur stdDeviation="15"/>
<feColorMatrix type="matrix" values="0 0 0 0 0.960784 0 0 0 0 0.501961 0 0 0 0 0.129412 0 0 0 0.7 0"/>
<feBlend mode="normal" in2="BackgroundImageFix" result="effect1_dropShadow"/>
<feBlend mode="normal" in="SourceGraphic" in2="effect1_dropShadow" result="shape"/>
</filter>
</defs>
</svg>
