<svg width="121" height="162" viewBox="0 0 121 162" fill="none" xmlns="http://www.w3.org/2000/svg">
<g filter="url(#filter0_d)">
<path d="M60.6123 16.562C38.3304 16.562 20.3022 33.8072 20.3022 55.0582C20.3022 76.3092 60.6123 137.211 60.6123 137.211C60.6123 137.211 100.922 76.3092 100.922 55.0582C100.922 33.8072 82.8943 16.562 60.6123 16.562Z" fill="#F58021"/>
</g>
<path d="M46.6769 75.4852C46.408 74.1008 46.3213 72.7251 46.5641 71.3494C46.9457 69.164 48.0297 67.379 49.7728 66.0469C50.64 65.3851 51.6373 64.8975 52.5739 64.3229C53.1896 63.9485 53.8487 63.6176 54.3777 63.1474C55.7739 61.8849 57.1094 60.5615 58.4709 59.2641C59.2774 58.4979 60.0753 57.723 60.9338 56.8958C60.3528 56.8523 59.8324 56.8436 59.3208 56.7652C58.8091 56.6869 58.2975 56.5563 57.9246 56.0338C58.1067 56.0251 58.2368 56.0164 58.3669 56.0164C59.737 55.9729 60.4308 55.2763 60.4568 53.9442C60.4742 53.2999 60.3181 52.6468 60.2314 52.0025C59.8411 49.2772 60.5175 46.8219 62.1132 44.6103C62.2173 44.4623 62.33 44.3055 62.4601 44.1227C62.0178 44.0705 61.6189 44.053 61.2373 43.966C60.8644 43.8789 60.5175 43.7222 60.1533 43.6003C60.162 43.5567 60.1707 43.5132 60.1793 43.4784C60.4655 43.4174 60.7517 43.3652 61.0292 43.2955C63.0758 42.7557 64.5761 41.5628 65.4866 39.6125C65.8682 38.8027 66.3018 38.0104 66.7875 37.2616C67.646 35.9468 68.8688 35.111 70.3864 34.7105C70.5251 34.6756 70.6552 34.6321 70.8373 34.5798C70.5598 34.4144 70.291 34.3012 70.0915 34.1097C69.9181 33.9442 69.8314 33.6917 69.7533 33.4044C70.4731 33.6482 70.9847 33.3086 71.5051 33.0039C72.3896 32.4815 73.3089 32.0897 74.3669 32.1332C75.6677 32.1941 76.6563 32.8472 77.4801 33.8136C77.5929 33.9442 77.6969 34.0836 77.8097 34.2316C78.5121 33.7179 79.2146 33.8572 79.865 34.2925C80.2292 34.5363 80.5154 34.902 80.8623 35.1893C81.4173 35.6595 81.955 36.1732 82.5707 36.565C82.8742 36.7566 83.3165 36.7218 83.7674 36.8088C84.0623 37.6534 83.6113 38.2629 82.111 38.8463C82.484 39.4993 82.8568 40.1523 83.2297 40.8053C83.5073 41.2842 83.7241 41.7544 83.5593 42.3639C83.4899 42.6425 83.672 43.0517 83.8541 43.3217C84.3224 44.0008 84.8514 44.6364 85.3544 45.2894C85.6146 45.6377 85.8661 45.9947 86.1176 46.343C86.3604 46.6825 86.3604 47.0134 86.1089 47.3443C85.788 47.7535 85.5105 48.215 85.1203 48.5458C84.5392 49.0334 84.0623 49.5907 83.5766 50.174C82.9002 50.9925 81.9289 51.0273 81.1311 50.3134C80.9316 50.1305 80.7148 49.9303 80.5934 49.6952C80.3159 49.1379 79.839 48.9289 79.2926 48.7809C78.7723 48.6416 78.252 48.5197 77.749 48.3456C77.3327 48.1976 76.9425 47.9973 76.5436 47.8145C76.4742 48.0844 76.5002 48.3108 76.8471 48.5458C77.3501 48.8767 77.8877 49.1466 78.4427 49.3991C78.6856 49.5123 78.8243 49.6168 78.911 49.8867C79.2926 51.1492 79.7002 52.403 80.1165 53.6481C80.5241 54.8758 80.5587 56.1383 80.5154 57.4183C80.4634 58.8549 80.2292 60.2393 79.7956 61.5976C79.4834 62.5641 79.1365 63.191 78.6942 63.6263C78.3994 62.8514 78.1132 62.0852 77.8184 61.3277C77.775 61.3364 77.7316 61.3451 77.6883 61.3538C77.7577 62.12 77.801 62.8862 77.9051 63.6525C78.382 67.0133 79.1105 70.3307 80.0818 73.5871C80.2119 74.0051 80.446 74.4143 80.6975 74.7713C81.1658 75.433 81.8422 75.6594 82.6314 75.5897C83.5419 75.5114 84.0189 75.79 84.227 76.6781C84.3831 77.3572 84.3918 78.0712 84.4699 78.8026C81.8075 78.8026 79.2753 78.8026 76.6476 78.8026C76.5696 77.7926 76.5175 76.7826 76.3961 75.7813C76.3354 75.2414 76.2574 74.6755 76.0146 74.2053C75.4769 73.1779 74.8438 72.2114 74.2281 71.2275C73.3522 69.8344 72.459 68.45 71.5831 67.0743C69.8053 67.8144 67.9582 68.5893 66.059 69.3729C65.9983 69.8692 65.9289 70.4787 65.8595 71.0795C65.7642 71.9328 65.3479 72.5945 64.6628 73.0647C63.9083 73.5784 63.1105 74.0138 62.33 74.4839C62.1219 74.6145 61.9137 74.7539 61.7056 74.8845C61.723 74.9367 61.7316 74.9889 61.749 75.0412C62.0091 75.076 62.278 75.1457 62.5295 75.1283C63.5354 75.0586 64.5414 74.9628 65.556 74.8757C65.7988 74.8583 66.0417 74.8322 66.2932 74.8322C68.5739 74.8235 70.0222 76.4691 69.7533 78.8113C69.6146 78.82 69.4758 78.8287 69.3371 78.8287C61.9831 78.8287 54.6205 78.8374 47.2666 78.8287C46.5208 78.8287 45.749 78.7939 45.0292 78.611C44.4395 78.463 43.7891 78.1757 43.3641 77.749C41.6731 76.0599 40.7885 74.0399 41.5603 71.628C42.0373 70.1479 42.6964 68.7199 43.3295 67.292C43.7457 66.3516 44.214 65.4374 44.3788 64.4013C44.6736 62.5815 43.8845 60.9359 42.3408 60.1697C41.3435 59.6734 39.6872 60.4396 39.4617 61.5105C39.4357 61.6411 39.5051 61.8675 39.6005 61.9285C40.3549 62.4074 40.7105 63.1213 40.8752 63.9659C41.1007 65.1413 40.8752 66.9959 40.3983 67.9189C40.1555 67.5445 39.9126 67.1701 39.6698 66.7957C39.7999 68.3629 39.1755 69.5819 38.2216 70.6703C38.1696 70.6529 38.1262 70.6529 38.1175 70.6442C37.7533 69.6603 37.0769 68.9289 36.2964 68.2584C35.9148 67.9276 35.62 67.5009 35.2817 67.1091C35.1777 67.3094 35.0303 67.5967 34.8828 67.884C34.4406 67.5009 34.163 66.6999 34.2845 65.9163C34.4666 64.7669 34.9522 63.7918 36.1056 63.2955C36.2183 63.2432 36.3051 63.0691 36.3571 62.9298C36.9121 61.467 37.7446 60.2132 39.1148 59.4034C40.2248 58.7417 41.4563 58.4892 42.7397 58.6895C43.9365 58.8723 44.6823 59.656 45.1072 60.7617C45.7143 62.3377 45.6796 63.9659 45.3067 65.5593C45.0379 66.726 44.6129 67.8579 44.162 68.9724C43.7717 69.9563 43.3468 70.9228 43.2254 71.9937C43.0173 74.0486 44.5435 75.642 46.6769 75.4852Z" fill="#20113D"/>
<defs>
<filter id="filter0_d" x="0.302246" y="0.562012" width="120.62" height="160.649" filterUnits="userSpaceOnUse" color-interpolation-filters="sRGB">
<feFlood flood-opacity="0" result="BackgroundImageFix"/>
<feColorMatrix in="SourceAlpha" type="matrix" values="0 0 0 0 0 0 0 0 0 0 0 0 0 0 0 0 0 0 127 0"/>
<feOffset dy="4"/>
<feGaussianBlur stdDeviation="10"/>
<feColorMatrix type="matrix" values="0 0 0 0 0.12549 0 0 0 0 0.0666667 0 0 0 0 0.239216 0 0 0 1 0"/>
<feBlend mode="normal" in2="BackgroundImageFix" result="effect1_dropShadow"/>
<feBlend mode="normal" in="SourceGraphic" in2="effect1_dropShadow" result="shape"/>
</filter>
</defs>
</svg>
