<svg width="141" height="182" viewBox="0 0 141 182" fill="none" xmlns="http://www.w3.org/2000/svg">
<g filter="url(#filter0_d)">
<path d="M70.6123 26.562C48.3304 26.562 30.3022 43.8072 30.3022 65.0582C30.3022 86.3092 70.6123 147.211 70.6123 147.211C70.6123 147.211 110.922 86.3092 110.922 65.0582C110.922 43.8072 92.8943 26.562 70.6123 26.562Z" fill="#F58021"/>
<path fill-rule="evenodd" clip-rule="evenodd" d="M62.2527 68.8338C59.8342 69.5556 57.3968 69.4446 54.9408 67.8344C54.7523 68.0683 54.5592 68.3037 54.3641 68.5415L54.3636 68.5421L54.3636 68.5421L54.3636 68.5421L54.3636 68.5422L54.3635 68.5422C53.8796 69.1322 53.3835 69.737 52.9159 70.3699C52.5691 70.8604 52.2457 71.3693 51.9223 71.8783L51.9222 71.8783L51.9222 71.8784C51.5988 72.3873 51.2754 72.8963 50.9286 73.3867C50.1599 74.4786 49.8786 75.6631 49.9536 76.9772C50.0474 78.6614 49.3724 79.5127 47.7038 79.8088C44.2728 80.4196 41.198 77.9026 41.1793 74.4786C41.1793 74.1443 41.1732 73.81 41.1672 73.4768C41.1582 72.9801 41.1493 72.486 41.1605 71.9986C41.192 70.6916 41.7669 69.5547 42.3391 68.4228C42.4475 68.2084 42.5559 67.9941 42.6604 67.7789C42.9309 67.2253 43.2039 66.6725 43.4769 66.1197L43.4769 66.1196L43.477 66.1194C44.4909 64.0664 45.5052 62.0128 46.3914 59.9131C47.6941 56.836 49.6511 54.1894 51.615 51.5334L51.615 51.5334L51.615 51.5334L51.615 51.5334C52.0253 50.9785 52.4359 50.4232 52.8409 49.8635C52.8604 49.8395 52.8811 49.8155 52.902 49.7912L52.9021 49.7912L52.9021 49.7911C52.9621 49.7217 53.0243 49.6496 53.0659 49.5674C55.2595 45.6252 59.1592 44.6999 63.1714 43.9225C64.1609 43.7341 65.1423 43.498 66.1231 43.262C67.261 42.9883 68.398 42.7148 69.546 42.516C71.6458 42.1458 73.8019 41.8497 75.9392 41.7757C78.4703 41.6831 80.6076 42.8491 82.5013 44.4593C79.6327 43.0157 76.5579 42.516 73.3707 42.59C72.5645 42.6085 71.7583 42.6825 70.9521 42.7751C69.7897 42.9046 69.3022 43.756 68.9835 44.7369C68.1586 47.2354 68.3273 49.6969 69.2085 52.1769C69.4209 52.7728 69.5533 53.4015 69.6852 54.0278L69.6852 54.0279C69.7745 54.4521 69.8636 54.8752 69.9772 55.2862C70.122 55.7985 70.2634 56.3125 70.4048 56.8267L70.4048 56.8267L70.4048 56.8268L70.4048 56.8268L70.4048 56.8268C70.9226 58.7091 71.4412 60.5946 72.1333 62.4117C72.4145 63.1705 73.3519 63.9108 74.1581 64.2069C77.3266 65.3359 80.5701 65.9466 83.9262 64.8177C88.1446 63.3926 90.3194 58.9507 88.7258 54.8235C88.2151 53.516 87.6094 52.2488 87.0011 50.9761C86.8947 50.7535 86.7882 50.5308 86.6822 50.3077C86.5851 50.1023 86.3853 49.9374 86.1893 49.7755C86.1203 49.7187 86.0519 49.6621 85.9885 49.6044C85.746 49.3773 85.4932 49.1563 85.2397 48.9347C84.7287 48.488 84.2148 48.0387 83.7762 47.5315C83.1575 46.8097 83.1762 45.9029 83.7199 45.1255C84.2449 44.3667 85.0886 44.1817 85.9697 44.3297C87.3384 44.5518 88.2196 45.3846 88.6696 46.6247C89.1008 47.8277 88.6883 48.8641 87.6196 49.771C89.0258 50.9184 89.4945 52.5656 89.907 54.1943C90.0631 54.811 90.147 55.4474 90.2311 56.0854L90.2311 56.0855L90.2312 56.0855L90.2312 56.0856C90.3288 56.8261 90.4267 57.5686 90.6382 58.2845C90.9914 59.4699 91.4152 60.6393 91.8394 61.8098C92.2034 62.8141 92.5677 63.8192 92.888 64.8362C93.3039 66.138 93.6869 67.4508 94.0697 68.7626L94.0697 68.7627L94.0697 68.7628L94.0698 68.7629C94.3943 69.8754 94.7187 70.9872 95.0628 72.0912C95.2546 72.7064 95.5 73.3066 95.7452 73.9061L95.7453 73.9062L95.7454 73.9067L95.7455 73.9068L95.7455 73.9069C95.8837 74.2449 96.0219 74.5826 96.1503 74.9228C96.5611 75.9993 97.4916 76.4839 98.4137 76.9643C98.5856 77.0539 98.7572 77.1432 98.9251 77.2363C99.7875 77.7175 100.237 78.3467 100.012 79.3461C99.8062 80.29 99.1875 80.8823 98.0439 80.8453C95.7003 80.7527 93.3755 80.5306 91.0506 80.29C90.6569 80.253 90.2444 79.8459 89.9632 79.5127C88.3883 77.6434 86.8322 75.7557 85.2948 73.8679C84.2261 72.5539 83.4387 71.1103 83.0262 69.4631C82.8509 68.7853 82.4935 68.1412 82.1402 67.5046C82.0401 67.3242 81.9403 67.1444 81.845 66.9645C81.7513 66.7795 81.4888 66.6129 81.2826 66.5759L81.1345 66.5469C79.9467 66.3138 78.7652 66.082 77.7391 67.1126C77.4779 67.3889 77.0496 67.5368 76.6759 67.6659L76.6704 67.6678C76.0142 67.8899 75.7143 68.2971 75.958 68.9264C76.8229 71.2155 76.7576 73.5542 76.6921 75.8983V75.8984C76.6596 77.0604 76.6272 78.2238 76.7079 79.3832C76.7413 79.8273 76.8042 80.2715 76.8672 80.7157C76.9459 81.2709 77.0246 81.8262 77.0454 82.3814C77.0642 82.8071 76.8767 83.4178 76.5767 83.6399C74.0831 85.4907 71.2896 85.8053 68.421 84.7874C66.9961 84.2692 66.04 83.2513 65.815 81.5115C65.3838 77.9026 64.8026 74.3121 64.0526 70.7586C63.7825 69.4256 63.1326 68.1527 62.4994 66.9127C62.4293 66.7754 62.3594 66.6384 62.2902 66.5019C60.4904 62.9669 59.9842 59.3024 60.6216 55.3788C61.1466 52.1214 61.859 49.0121 64.0526 46.4396C64.505 45.9141 65.0425 45.4633 65.5778 45.0142L65.5779 45.0142C65.7967 44.8306 66.0152 44.6472 66.2274 44.4593C66.2594 44.4322 66.2936 44.4063 66.3281 44.3801L66.3283 44.3799L66.3284 44.3798L66.3285 44.3798C66.4356 44.2986 66.5457 44.215 66.6024 44.0891C63.7151 44.1261 61.1091 44.922 58.5405 46.1064C56.1343 47.1957 54.7554 49.1384 53.3593 51.1053C53.0475 51.5446 52.7348 51.9851 52.4097 52.4175C52.2785 52.6026 52.2785 52.9173 52.2972 53.1764C52.5725 55.7672 53.5845 58.1275 54.5944 60.483L54.6595 60.6349C54.8604 61.0844 54.9656 61.5811 55.0709 62.0778L55.0709 62.0779L55.0709 62.0779L55.0709 62.078C55.113 62.2766 55.1551 62.4752 55.2033 62.6708C55.3157 63.1705 55.4282 63.6887 55.4657 64.2069C55.4734 64.3123 55.4817 64.4183 55.49 64.5248L55.49 64.5248C55.5433 65.204 55.5979 65.9014 55.4845 66.5574C55.2595 67.7234 55.3532 68.075 56.5719 68.2601C56.965 68.2989 57.3613 68.3377 57.7594 68.3767C59.2602 68.5236 60.7857 68.6729 62.2527 68.8338ZM71.2896 51.4555C70.2022 51.0113 69.7522 49.9564 69.6023 48.7164C69.4335 47.3653 70.6709 45.6811 72.1146 45.1814C73.2582 44.7928 74.8706 45.422 75.5081 46.5325C75.883 47.1988 76.033 47.7355 75.2081 48.3092C74.2747 48.9542 73.4077 49.6834 72.4722 50.4702L72.4722 50.4703L72.4721 50.4703C72.0923 50.7898 71.7011 51.1188 71.2896 51.4555ZM74.8518 57.1368C74.5144 58.5989 75.4705 59.7648 76.633 59.6723C76.7382 59.3411 76.8389 59.0168 76.9381 58.6969L76.9381 58.6968L76.9382 58.6965L76.9383 58.6963C77.1219 58.1047 77.3007 57.5282 77.4954 56.9517C77.547 56.8075 77.6182 56.6672 77.6893 56.5272C77.7733 56.3617 77.8571 56.1967 77.9079 56.0263C78.0579 55.4896 78.2266 54.7863 77.5329 54.6197C77.0267 54.5087 76.2205 54.6752 75.9018 55.0269C75.3956 55.5821 75.0206 56.3779 74.8518 57.1368ZM81.545 55.0639C81.6287 54.9537 81.7058 54.8336 81.7817 54.7155C81.9607 54.4367 82.133 54.1684 82.37 54.0645C82.6137 53.9534 83.1387 54.1755 83.4011 54.3976C83.459 54.4468 83.5171 54.4959 83.5753 54.5452L83.5754 54.5452C84.1966 55.0708 84.8303 55.6069 85.276 56.2669C85.5197 56.6555 85.426 57.3773 85.2573 57.8585C85.126 58.2102 84.6385 58.5803 84.2636 58.6543C84.0198 58.6913 83.6261 58.2472 83.3824 57.951C82.9699 57.4513 82.6137 56.9331 82.2575 56.3779C82.076 56.1347 81.9393 55.8561 81.7792 55.5299L81.7792 55.5299C81.7078 55.3844 81.6318 55.2294 81.545 55.0639ZM82.5269 61.7154L82.5387 61.7082C82.5334 61.6766 82.5266 61.6435 82.5195 61.6093C82.5017 61.5234 82.4825 61.4307 82.4825 61.338C82.3825 61.3134 82.2825 61.2805 82.1825 61.2476C81.9825 61.1818 81.7826 61.1159 81.5826 61.1159C80.8139 61.1159 80.0452 61.1345 79.2952 61.227C78.9953 61.264 78.639 61.4676 78.5078 61.6897C78.4328 61.8192 78.6765 62.2264 78.8828 62.4115C78.9923 62.5196 79.153 62.5582 79.3163 62.5975C79.4325 62.6255 79.5501 62.6537 79.6515 62.7076C79.8577 62.8187 80.2327 63.0407 80.2139 63.1333C80.1389 63.3924 79.9514 63.6515 79.7265 63.8366C79.6175 63.9321 79.4617 63.966 79.2691 64.0079C79.1634 64.0309 79.0465 64.0563 78.9203 64.0957C79.648 64.0486 80.3225 64.0015 80.9971 63.9544C81.3827 63.9274 81.7683 63.9005 82.1638 63.8736C81.9424 63.7765 81.6888 63.747 81.4446 63.7187C80.9441 63.6606 80.4832 63.6071 80.4202 62.9852C81.1843 62.5252 81.8559 62.1201 82.5269 61.7154Z" fill="#20113D"/>
</g>
<defs>
<filter id="filter0_d" x="-9" y="-8" width="160" height="204" filterUnits="userSpaceOnUse" color-interpolation-filters="sRGB">
<feFlood flood-opacity="0" result="BackgroundImageFix"/>
<feColorMatrix in="SourceAlpha" type="matrix" values="0 0 0 0 0 0 0 0 0 0 0 0 0 0 0 0 0 0 127 0"/>
<feOffset dy="4"/>
<feGaussianBlur stdDeviation="15"/>
<feColorMatrix type="matrix" values="0 0 0 0 0.960784 0 0 0 0 0.501961 0 0 0 0 0.129412 0 0 0 0.7 0"/>
<feBlend mode="normal" in2="BackgroundImageFix" result="effect1_dropShadow"/>
<feBlend mode="normal" in="SourceGraphic" in2="effect1_dropShadow" result="shape"/>
</filter>
</defs>
</svg>
