<svg width="141" height="182" viewBox="0 0 141 182" fill="none" xmlns="http://www.w3.org/2000/svg">
<g filter="url(#filter0_d)">
<path d="M70.6123 26.562C48.3304 26.562 30.3022 43.8072 30.3022 65.0582C30.3022 86.3092 70.6123 147.211 70.6123 147.211C70.6123 147.211 110.922 86.3092 110.922 65.0582C110.922 43.8072 92.8943 26.562 70.6123 26.562Z" fill="#F58021"/>
<path d="M56.1229 75.4213C56.0882 75.4827 56.0592 75.5529 55.9897 75.6756C55.2153 74.3737 54.9906 72.9338 54.7165 71.5141C54.6669 71.4963 54.6087 71.4843 54.565 71.4753C54.3973 71.9052 54.1742 72.3085 54.0735 72.7447C53.7249 74.173 53.8303 75.6036 54.1714 77.0294C54.5888 78.7223 55.0062 80.4151 55.3625 82.1106C55.6275 83.3837 55.7821 84.6797 55.503 85.9853C55.1981 87.4227 54.5608 88.5859 53.1129 89.1326C52.4675 89.3727 51.8329 89.2876 51.2472 88.9536C50.676 88.6226 50.6018 88.0362 51.0954 87.6049C51.3887 87.3455 51.7227 87.0717 52.0832 86.9328C52.7955 86.6608 53.1609 86.1497 53.2173 85.4379C53.271 84.7788 53.2925 84.0903 53.1774 83.4421C52.8589 81.7087 52.4763 79.9926 52.0705 78.2792C51.6147 76.3576 51.348 74.4369 51.6808 72.4722C51.9704 70.7652 52.7089 69.3183 54.0623 68.2113C54.161 68.1327 54.251 68.0598 54.3498 67.9812C54.4108 67.9405 54.4689 67.9144 54.5794 67.8534C54.6646 68.1908 54.7323 68.5017 54.8087 68.8069C55.2631 66.6464 55.3972 64.3819 57.1974 62.735C59.8375 64.216 61.3011 66.5205 61.8904 69.4597C62.4205 66.104 60.4214 63.7881 58.4686 61.3903C58.9568 61.1025 59.4188 60.8323 59.8809 60.562C60.2732 60.3383 60.6655 60.1145 61.0606 59.8762C61.9498 59.3589 61.976 59.3414 62.5776 60.2118C63.1413 61.0438 63.6352 61.9224 64.1495 62.7747C64.246 62.9393 64.3337 63.1097 64.4795 63.254C64.3826 61.7033 63.7506 60.3317 62.9789 58.939C63.8624 58.451 64.7225 57.9658 65.6061 57.5159C65.7252 57.4491 65.967 57.5675 66.1157 57.659C67.7973 58.6987 68.7819 60.2801 69.4644 62.0885C69.6695 62.6258 69.8484 63.1805 70.0854 63.7091C70.0816 60.9897 68.7142 58.7735 67.3146 56.4898C68.3169 55.8207 69.2931 55.169 70.3303 54.4766C71.3135 55.5246 71.896 56.8784 72.5337 58.2207C72.5951 57.1748 72.3134 56.2181 71.8077 55.3219C71.6294 54.9958 71.4424 54.6754 71.2292 54.3726C70.9693 53.9992 70.9743 53.6651 71.2965 53.3355C71.9467 52.6852 72.5853 52.0173 73.2355 51.367C75.8209 53.0499 77.3689 55.349 77.9495 58.332C78.0911 56.762 77.6772 55.2831 77.1091 53.8562C76.5439 52.4146 75.6242 51.1969 74.469 50.0602C75.7872 48.8622 77.059 47.7079 78.3656 46.5304C79.5708 47.9136 80.5636 49.2605 81.0391 50.9273C80.9124 49.104 80.3205 47.4513 79.1614 45.9101C79.7805 45.6113 80.3239 45.3121 80.8908 45.0863C81.0129 45.043 81.2373 45.173 81.3918 45.2734C82.0709 45.7104 82.7961 45.9513 83.6225 45.9084C82.6704 45.7045 82.1362 45.0308 81.7152 44.2434C81.4141 43.694 81.6141 43.3697 82.2076 43.3169C83.1968 43.2162 84.1771 43.0833 85.1545 42.9269C85.8264 42.8217 86.4748 42.6051 87.1468 42.4999C88.162 42.3437 89.0938 42.5739 90.0348 43.0268C90.7399 43.3702 91.5666 43.4797 92.3556 43.6271C92.836 43.7262 93.2794 44.1298 93.298 44.6134C93.3076 44.9504 93.3259 45.2817 93.3674 45.6101C93.489 46.5337 93.2086 47.306 92.5789 48.0062C92.5205 47.918 92.4709 47.8621 92.4387 47.7946C92.1518 47.0957 92.1576 47.1046 91.4363 47.2681C90.7529 47.4318 90.0958 47.6542 89.6258 48.2351C89.0833 48.9152 89.0242 49.7179 89.5058 50.3121C89.894 50.8034 90.9653 50.9405 91.6017 50.5919C91.7208 50.5251 91.84 50.4583 91.9591 50.3915C92.2781 51.1198 92.1689 51.676 91.5968 52.1597C91.1438 52.5384 90.647 52.8701 90.13 53.2661C89.5355 52.8998 88.903 52.4953 88.2532 52.1405C87.5888 51.7827 86.8985 51.5185 86.0232 51.7721C86.3612 51.9408 86.6147 52.0768 86.9643 52.2631C85.5224 52.8568 84.5528 53.784 84.015 55.2114C83.8304 54.686 83.6516 54.1693 83.4318 53.5529C83.1925 56.7781 85.6796 61.1213 90.5692 62.6016C90.3424 62.6766 90.1651 62.7315 89.9848 62.8009C89.9907 62.8478 89.988 62.9006 89.9939 62.9475C90.2005 62.9368 90.4013 62.9553 90.5991 62.9123C91.2797 62.7633 91.9514 62.5819 92.6379 62.4417C93.301 62.3042 93.9009 62.4888 94.5248 62.9373C93.6445 63.525 92.8339 64.0661 92.0321 64.6014C91.3464 65.0464 90.6666 65.5002 89.9693 65.9276C89.8327 66.006 89.6 66.0342 89.4688 65.9691C86.7185 64.6253 83.8012 64.0543 80.7776 64.0249C79.794 64.0201 78.9175 63.7785 78.1158 63.1944C77.903 63.0439 77.6554 62.9548 77.3585 62.924C77.6882 63.289 78.0093 63.6598 78.4003 64.0983C74.7379 64.6226 71.4119 65.8636 68.3555 67.8912C67.9668 67.2094 67.6014 66.563 67.2419 65.9253C67.21 65.9339 67.1867 65.9368 67.1547 65.9454C67.2075 66.1391 67.243 66.3444 67.3191 66.5352C67.694 67.5187 67.6178 68.4854 67.3089 69.4802C66.6015 71.7332 65.1245 73.4315 63.5427 75.0853C62.6661 76.0012 61.8829 77.0201 61.1113 78.0185C60.5225 78.7805 60.2162 79.6845 60.1983 80.6631C60.1987 80.8155 60.1525 80.9735 60.121 81.1727C59.9636 81.0869 59.8325 81.0218 59.6693 80.9272C59.6841 81.0064 59.6813 81.0592 59.6988 81.0856C60.4581 82.156 61.3939 82.8668 62.7989 82.6157C63.3166 82.5245 63.8086 82.6031 64.2261 83.1384C64.0343 83.2664 63.8513 83.3886 63.677 83.505C62.326 84.4068 60.9693 85.2999 59.6387 86.2135C59.3337 86.4172 59.1503 86.387 58.8646 86.1834C57.8559 85.4576 57.2307 84.4377 56.6577 83.3829C56.4472 82.9892 56.3906 82.4673 56.3982 82.0043C56.4061 80.4981 56.4984 78.9865 56.5005 77.4715C56.5075 76.78 56.3632 76.0877 56.2946 75.3958C56.2364 75.4219 56.184 75.4187 56.1229 75.4213ZM87.3832 43.9575C87.3747 44.0395 87.3749 44.1157 87.3663 44.1977C87.8177 44.3288 88.2663 44.5127 88.7292 44.5853C88.898 44.6125 89.1069 44.3586 89.2987 44.2306C89.1295 44.0891 88.963 43.8187 88.7971 43.8149C88.3228 43.8009 87.8487 43.9012 87.3832 43.9575Z" fill="#20113D"/>
<path d="M69.5746 74.4963C69.4989 74.496 69.3271 74.4834 69.0623 74.4821C69.8264 75.1426 70.6385 75.1729 71.4504 75.0888C72.4164 74.9908 73.3765 74.8078 74.3425 74.7098C74.9129 74.6597 75.4633 74.7884 75.8227 75.3883C75.6978 75.4845 75.5874 75.5837 75.4654 75.6652C74.0182 76.6317 72.5769 77.6071 71.1094 78.5618C70.9089 78.6958 70.5917 78.7294 70.3501 78.6872C69.625 78.5606 68.9173 78.3842 68.2009 78.2136C67.3622 78.0102 66.8488 77.5386 66.7797 76.6176C66.7586 76.3008 66.5861 75.9833 66.4224 75.6981C66.098 75.1511 65.7301 74.6333 65.362 74.0774C66.7124 72.8318 67.2818 71.1661 67.9066 69.5271C68.1814 68.8217 68.6227 68.3488 69.3263 68.0443C69.9012 68.7039 70.3802 69.3894 70.17 70.3443C70.0807 70.7221 69.9855 71.0911 69.9312 71.4837C69.8083 72.4566 69.6972 73.4472 69.5746 74.4963Z" fill="#20113D"/>
<path d="M74.0467 65.6946C75.8126 65.3424 77.436 65.0218 79.1147 64.6897C79.3691 66.4034 78.8843 68.1399 79.6507 69.7534C79.389 69.8519 79.1534 69.9329 78.915 70.0285C78.918 70.0901 78.9298 70.1459 78.9329 70.2075C79.3054 70.2004 79.6926 70.2346 80.0563 70.1571C80.6498 70.028 81.211 69.7932 81.8015 69.6406C82.4705 69.4737 82.9893 69.7636 83.4651 70.3113C82.8984 70.6898 82.3492 71.0566 81.8086 71.4176C80.8235 72.0756 79.85 72.7513 78.8473 73.3828C78.6671 73.4904 78.3528 73.5094 78.146 73.4439C77.3159 73.1966 76.7555 72.5781 76.4423 71.82C75.6138 69.8279 74.8609 67.7981 74.0467 65.6946Z" fill="#20113D"/>
</g>
<defs>
<filter id="filter0_d" x="-9" y="-8" width="160" height="204" filterUnits="userSpaceOnUse" color-interpolation-filters="sRGB">
<feFlood flood-opacity="0" result="BackgroundImageFix"/>
<feColorMatrix in="SourceAlpha" type="matrix" values="0 0 0 0 0 0 0 0 0 0 0 0 0 0 0 0 0 0 127 0"/>
<feOffset dy="4"/>
<feGaussianBlur stdDeviation="15"/>
<feColorMatrix type="matrix" values="0 0 0 0 0.960784 0 0 0 0 0.501961 0 0 0 0 0.129412 0 0 0 0.7 0"/>
<feBlend mode="normal" in2="BackgroundImageFix" result="effect1_dropShadow"/>
<feBlend mode="normal" in="SourceGraphic" in2="effect1_dropShadow" result="shape"/>
</filter>
</defs>
</svg>
