<svg width="80" height="74" viewBox="0 0 80 74" fill="none" xmlns="http://www.w3.org/2000/svg">
<path fill-rule="evenodd" clip-rule="evenodd" d="M41.0687 26.12C40.8866 26.1992 40.7211 26.3153 40.5818 26.4616C40.4422 26.6075 40.3314 26.7809 40.2558 26.9717C40.1803 27.1626 40.1414 27.3672 40.1414 27.5739C40.1414 27.7805 40.1803 27.9852 40.2558 28.176C40.3314 28.3669 40.4422 28.5403 40.5818 28.6862L46.6095 35H29.4589C29.0345 35 28.6276 35.2107 28.3275 35.5858C28.0275 35.9609 27.8589 36.4696 27.8589 37C27.8589 37.5304 28.0275 38.0391 28.3275 38.4142C28.6276 38.7893 29.0345 39 29.4589 39H46.6103L40.5818 45.3146C40.3003 45.6096 40.1421 46.0097 40.1421 46.4269C40.1421 46.8441 40.3003 47.2443 40.5818 47.5393C40.8634 47.8343 41.2452 48 41.6434 48C42.0415 48 42.4234 47.8343 42.7049 47.5393L51.7009 38.1127C51.8405 37.9668 51.9513 37.7934 52.0269 37.6026C52.1024 37.4117 52.1414 37.2071 52.1414 37.0004C52.1414 36.7938 52.1024 36.5891 52.0269 36.3983C51.9513 36.2074 51.8405 36.034 51.7009 35.8881L42.7049 26.4616C42.5656 26.3153 42.4002 26.1992 42.218 26.12C42.0359 26.0408 41.8406 26 41.6434 26C41.4461 26 41.2509 26.0408 41.0687 26.12Z" fill="#20113D"/>
</svg>
