<svg width="80" height="74" viewBox="0 0 80 74" fill="none" xmlns="http://www.w3.org/2000/svg">
<path fill-rule="evenodd" clip-rule="evenodd" d="M38.9313 26.12C39.1134 26.1992 39.2789 26.3153 39.4182 26.4616C39.5578 26.6075 39.6686 26.7809 39.7442 26.9717C39.8197 27.1626 39.8586 27.3672 39.8586 27.5739C39.8586 27.7805 39.8197 27.9852 39.7442 28.176C39.6686 28.3669 39.5578 28.5403 39.4182 28.6862L33.3905 35H50.5411C50.9655 35 51.3724 35.2107 51.6725 35.5858C51.9725 35.9609 52.1411 36.4696 52.1411 37C52.1411 37.5304 51.9725 38.0391 51.6725 38.4142C51.3724 38.7893 50.9655 39 50.5411 39H33.3897L39.4182 45.3146C39.6997 45.6096 39.8579 46.0097 39.8579 46.4269C39.8579 46.8441 39.6997 47.2443 39.4182 47.5393C39.1366 47.8343 38.7548 48 38.3566 48C37.9585 48 37.5766 47.8343 37.2951 47.5393L28.2991 38.1127C28.1595 37.9668 28.0487 37.7934 27.9731 37.6026C27.8976 37.4117 27.8586 37.2071 27.8586 37.0004C27.8586 36.7938 27.8976 36.5891 27.9731 36.3983C28.0487 36.2074 28.1595 36.034 28.2991 35.8881L37.2951 26.4616C37.4344 26.3153 37.5998 26.1992 37.782 26.12C37.9641 26.0408 38.1594 26 38.3566 26C38.5539 26 38.7491 26.0408 38.9313 26.12Z" fill="#20113D"/>
</svg>
