<svg width="65" height="61" viewBox="0 0 65 61" fill="none" xmlns="http://www.w3.org/2000/svg">
<path d="M19.8579 54.5723C24.1924 53.5812 26.9328 50.7994 29.709 47.8438C29.3328 47.7395 29.0463 47.6525 28.7597 47.583C24.9446 46.6441 21.4341 45.0446 18.2101 42.8713C16.222 41.5326 14.5921 39.8461 13.3562 37.7945C13.195 37.5337 13.0697 37.2555 12.9443 36.9774C12.9085 36.9078 12.9085 36.8209 12.8726 36.5775C14.0906 36.9426 15.2369 37.2903 16.3653 37.638C16.4011 37.6033 16.419 37.5859 16.4548 37.5511C16.3295 37.4468 16.222 37.3425 16.0966 37.2555C14.6279 36.3341 13.195 35.3778 11.7084 34.5085C10.0069 33.5001 8.21579 32.6308 6.56798 31.5876C4.36493 30.1793 2.80667 28.1973 1.67828 25.9023C1.62455 25.798 1.60664 25.6937 1.58873 25.5894C1.57081 25.5372 1.58873 25.4676 1.58873 25.3112C3.41564 26.0762 5.11719 27.1541 7.23068 26.9629C3.07534 24.6505 0.496158 21.4167 0.675268 16.5485C2.44845 18.4436 4.18582 20.3213 5.92318 22.199C5.95901 22.1643 6.01274 22.1121 6.04856 22.0773C5.33212 20.7212 4.49031 19.3998 3.95298 17.9742C3.41565 16.5485 3.05743 15.0011 2.87832 13.4885C2.69921 11.9759 2.84249 10.4285 2.84249 8.89854C2.93205 8.88115 3.02161 8.88116 3.09325 8.86377C3.93506 10.7067 4.77688 12.5497 5.61869 14.41C5.70825 14.41 5.7978 14.3926 5.88736 14.3926C5.85154 11.0371 6.22767 7.75105 7.82175 4.74322C7.89339 4.74322 7.96503 4.74323 8.03668 4.76061C8.03668 5.50822 8.0725 6.23844 8.03668 6.98605C7.83966 10.6546 9.29045 13.7841 11.4577 16.6354C12.9085 18.5305 14.6996 20.1127 16.6339 21.5384C19.1773 23.4161 22.0251 24.7896 24.873 26.1457C27.5238 27.3975 29.8522 29.1014 32.0374 31.0139C33.3628 32.1788 34.7419 33.2741 36.1032 34.4042C36.4793 34.7171 36.8554 35.0649 37.2853 35.4474C37.9838 33.8826 38.6286 32.4222 39.2734 30.9443C40.8317 27.4323 43.178 24.4766 46.0796 21.9209C48.3901 19.8867 50.7364 17.922 53.047 15.9052C56.1814 13.1582 58.1337 9.75047 58.7606 5.68208C58.9934 4.23902 58.8859 2.72642 58.9397 1.26597C58.9397 1.02256 58.9397 0.761771 59.0292 0.500977C60.1576 3.0046 60.48 5.64731 60.7487 8.39434C61.8592 6.20367 62.9517 4.013 64.0622 1.80495C64.1518 1.82233 64.2413 1.83972 64.313 1.8571C64.1876 4.09993 64.1697 6.34276 63.901 8.5682C63.6323 10.7763 63.1129 12.9495 62.701 15.0533C63.2562 14.2187 63.901 13.2625 64.6533 12.1672C64.707 14.3057 64.6354 16.2355 63.704 18.0611C62.7905 19.8693 61.3218 21.2254 59.7277 22.5641C60.6054 22.738 61.3039 22.4424 61.9845 22.1121C62.6472 21.7991 63.2562 21.4167 64.0264 20.982C63.9547 21.3123 63.9189 21.5384 63.8473 21.747C62.8801 24.2854 61.3756 26.4761 59.1188 28.093C57.7396 29.1014 56.2709 29.9881 54.9097 30.9965C54.05 31.6398 53.441 32.0397 53.4052 32.9264C53.9783 32.7351 54.5336 32.5612 55.1963 32.3526C54.0858 36.0385 51.1484 38.2987 48.5871 40.9414C48.8379 41.0457 49.0349 41.1153 49.2319 41.2022C50.5036 41.7064 51.5783 42.4714 52.3126 43.6189C52.8678 44.4708 52.9932 45.3749 52.7604 46.3659C52.6887 46.6615 52.8678 47.0614 53.0649 47.3222C53.6738 48.2263 53.7634 49.1477 53.2261 50.0866C52.7066 51.0081 51.8469 51.4601 50.7185 51.5297C51.6141 49.9649 51.5783 49.6172 50.3603 48.7826C50.2349 49.4259 50.1096 50.0344 49.9842 50.6777C49.1782 50.0344 48.4797 49.2694 47.602 48.8174C46.7065 48.3654 45.6497 48.2437 44.5751 47.9481C44.6288 48.1741 44.6288 48.3132 44.6825 48.4349C45.4706 50.3648 46.205 52.3294 47.1005 54.2245C47.4229 54.92 48.0677 55.5111 48.6588 56.0327C49.214 56.5195 49.6081 56.3457 49.823 55.6328C49.9663 55.1286 50.02 54.607 50.1096 54.1028C50.1991 53.6508 50.4499 53.4595 50.7723 53.5986C50.8439 54.0159 50.9335 54.3462 50.9514 54.6766C50.9693 55.0243 50.9693 55.3894 50.8976 55.7198C50.826 56.0153 50.629 56.2935 50.4857 56.5717C50.5215 56.6238 50.5752 56.6586 50.6111 56.7108C51.0947 56.3978 51.5962 56.0849 52.0619 55.7545C52.2947 55.5807 52.4738 55.3546 52.6887 55.1634C53.5306 54.4158 53.9425 54.4679 54.5336 55.459C54.2112 55.4242 53.9246 55.372 53.6201 55.3373C53.5664 56.6238 52.1693 56.6064 51.5962 57.4758C52.2768 57.441 52.8858 57.3888 53.4947 57.3888C54.4261 57.3888 54.8022 57.8061 54.6231 58.7276C54.3545 58.1017 53.9067 58.1886 53.4768 58.3625C52.5634 58.7276 51.632 58.6059 50.7006 58.4842C49.6797 58.3451 48.7662 58.4842 47.8886 59.0753C47.3154 59.4752 46.7244 59.8577 45.9005 59.6838C45.7214 59.649 45.399 60.2228 45.1661 60.501C44.79 60.0142 44.8079 59.5447 45.4348 59.1622C45.8288 58.9188 46.2945 58.7971 46.7244 58.6233C46.993 58.5189 47.2796 58.432 47.5125 58.2581C48.0319 57.8756 48.0319 57.6322 47.5304 57.2497C46.2945 56.2761 45.0587 55.3199 43.8228 54.3462C43.7153 54.2593 43.59 54.1898 43.4825 54.1724C41.8526 54.0333 40.957 52.9901 40.2764 51.7209C40.1331 51.4427 40.0257 51.0602 39.6316 51.3036C39.4167 51.4427 39.1839 51.86 39.2555 52.0686C39.6316 53.4422 40.4555 54.5201 41.7272 55.2155C42.2825 55.1286 42.3899 53.8073 43.178 54.607C43.1064 54.9026 43.0526 55.0765 43.0168 55.2503C43.2317 55.2851 43.4646 55.372 43.6795 55.3546C44.0377 55.3546 44.396 55.2851 44.7542 55.2503C44.7721 55.3199 44.79 55.4068 44.8079 55.4763C44.5572 55.598 44.3064 55.7198 43.9661 55.8936C45.6855 55.9805 45.6855 55.9805 45.7572 56.8672C45.202 56.3457 44.6646 56.7629 44.1273 56.8325C42.9093 56.9716 42.0675 57.5279 41.6198 58.6928C41.4765 59.0579 41.0824 59.3187 40.7242 59.7186C40.7421 59.7708 40.7958 59.9446 40.8317 60.1359C40.0615 59.8751 39.8824 59.51 40.2585 58.8493C40.5451 58.3451 40.9212 57.8756 41.2615 57.3888C41.566 56.9542 41.566 56.5891 40.9929 56.3457C40.0615 55.9458 39.2734 55.3025 38.1809 55.1982C37.7689 55.1634 37.4107 54.6244 36.9987 54.2767C36.8017 54.5896 36.533 54.9548 36.3181 55.372C35.6912 56.6065 34.6345 57.3541 33.3091 57.7018C29.1358 58.8145 25.1954 58.1886 21.5236 55.9805C20.9147 55.6328 20.4669 55.0938 19.8579 54.5723Z" fill="#20113D"/>
</svg>
