<svg width="69" height="61" viewBox="0 0 69 61" fill="none" xmlns="http://www.w3.org/2000/svg">
<path fill-rule="evenodd" clip-rule="evenodd" d="M48.1978 26.9514C48.8218 28.2855 49.4457 29.6197 50.0924 31.0129C49.929 31.1468 49.7636 31.2851 49.5956 31.4254L49.5948 31.4261L49.5947 31.4261C49.2148 31.7436 48.8222 32.0716 48.4133 32.3825C47.959 32.7261 47.5085 33.0745 47.0582 33.4227L47.0576 33.4233L47.0575 33.4233C45.945 34.2838 44.8339 35.1431 43.671 35.9246C39.4847 38.7465 34.8672 39.8918 29.898 39.4431C28.6841 39.3368 27.4021 38.9 26.8916 38.534C27.1864 36.41 27.4698 34.3449 27.7533 32.2799L27.7538 32.2763C27.7198 32.2645 27.6829 32.2556 27.646 32.2468C27.6091 32.2379 27.5723 32.2291 27.5382 32.2173C27.4278 32.4505 27.3182 32.6838 27.2088 32.9169L27.2085 32.9176C26.936 33.4981 26.6643 34.0768 26.381 34.6495C25.6453 36.1624 25.152 37.769 24.6575 39.3792C24.5192 39.8298 24.3807 40.2808 24.2368 40.73C23.3292 43.5283 21.7068 45.6772 18.95 46.728C18.8138 46.787 18.7004 47.0231 18.6436 47.2002C18.5325 47.5673 18.4337 47.9387 18.335 48.3098L18.3349 48.3101C18.2019 48.8102 18.069 49.3098 17.9062 49.7978C17.2822 51.6869 16.1137 53.1509 14.5367 54.2726C13.8333 54.7685 13.1299 55.2762 12.4605 55.8193C11.8819 56.2798 11.9046 56.4805 12.4719 56.941C12.5828 57.0311 12.6944 57.1199 12.8057 57.2084L12.8058 57.2085L12.8058 57.2085C13.1612 57.4912 13.5137 57.7716 13.8333 58.0862C14.3552 58.6057 14.5934 59.2669 14.4005 60.0226C14.3552 60.1997 14.0942 60.4358 13.9354 60.4358C10.2142 60.4594 6.48162 60.4594 2.76041 60.4476C2.62427 60.4476 2.4314 60.4004 2.35198 60.3059C2.23805 60.1616 2.12141 60.0178 2.00443 59.8736L2.00422 59.8733L2.00419 59.8733C1.58542 59.3571 1.16228 58.8354 0.843076 58.2633C0.638864 57.8973 0.616173 57.2834 0.752315 56.8701C2.06835 52.7023 3.75878 48.747 6.94677 45.7126C7.08291 45.5827 7.16233 45.2993 7.17367 45.0986C7.25309 42.0997 7.59345 39.1243 8.33088 36.2316C8.96621 33.7285 9.64692 31.2255 10.8495 28.9231C13.0618 24.7199 15.9208 21.2132 20.3114 19.3241C24.0893 17.7065 27.7765 17.9545 31.3729 19.8672C31.8666 20.1321 32.3131 20.4954 32.7481 20.8492C32.9528 21.0157 33.155 21.1801 33.3583 21.3313C32.9499 20.4103 32.2351 19.6547 31.4637 18.9581C32.1901 18.6705 32.9193 18.3921 33.6472 18.1143L33.6474 18.1142C36.8639 16.8863 40.0552 15.6681 42.8769 13.704C43.0011 14.1539 43.1232 14.6083 43.2459 15.0653L43.2459 15.0654C43.4034 15.6518 43.562 16.2423 43.7278 16.8328C43.7732 16.9745 43.8639 17.1044 43.9774 17.2225C43.7505 15.7584 43.7505 14.2943 44.2837 12.9483C44.7829 11.6732 45.3842 10.3862 46.1556 9.27639C48.0503 6.58441 50.3307 4.24664 52.872 2.20404L52.872 2.20402L52.872 2.204C52.9741 2.12136 53.0762 2.03873 53.1896 1.95609C53.3718 1.83506 53.5524 1.7061 53.7333 1.57687C54.6114 0.949698 55.4984 0.316114 56.6272 0.551068C58.4878 0.92889 60.0421 1.94429 61.1086 3.60906C61.4149 4.08134 61.7666 4.41194 62.2544 4.58904C63.5251 5.04951 64.4781 5.84057 65.0907 7.12753C65.3128 7.59775 65.6331 8.01417 65.9539 8.43126C66.1084 8.63207 66.263 8.83304 66.4068 9.04025C66.7017 9.4653 66.7585 9.81951 66.4294 10.3154C66.1572 10.7286 66.021 11.2836 65.9416 11.7913C65.8395 12.3934 66.0664 12.783 66.679 13.1136C68.2787 13.9637 69.209 15.8647 68.3241 17.7892C68.1766 18.108 68.0405 18.4268 67.9157 18.7574C67.3257 20.3395 66.2025 20.8944 64.6596 20.3395C64.6341 20.3306 64.6078 20.3218 64.5816 20.3129L64.5815 20.3129C64.5028 20.2863 64.4242 20.2598 64.3646 20.2332C64.081 20.6465 63.7974 21.0479 63.491 21.4729C63.4475 21.4176 63.4102 21.3772 63.3817 21.3464C63.3433 21.305 63.3209 21.2807 63.3209 21.2604C63.4116 20.245 62.8217 19.6429 62.1637 19.0289C59.0891 16.148 55.3225 16.6675 52.7472 18.3323C53.0367 18.2712 53.3236 18.2045 53.6096 18.138L53.6096 18.138C54.1529 18.0117 54.6931 17.8861 55.2431 17.801C58.5105 17.3287 61.3468 18.8518 62.8557 21.898C63.8995 23.9996 64.6369 26.1957 64.4554 28.6279L64.4534 28.6564V28.6565C64.4199 29.1328 64.3835 29.6517 64.1944 30.0684C63.5364 31.5325 63.7406 33.0083 64.1037 34.4606L64.1706 34.7312C64.5112 36.111 64.861 37.5276 65.5105 38.7465C68.0178 43.4338 68.222 48.499 68.0405 53.635C67.961 55.8429 67.2803 57.8029 65.5332 59.2315C64.5575 60.0344 63.5137 60.5893 62.209 60.483C61.6077 60.4358 60.9951 60.424 60.3938 60.483C59.2593 60.6129 58.4765 60.0226 57.8071 59.1961C57.081 58.3106 56.752 57.2834 56.9562 56.1263C57.013 55.8193 57.2285 55.4415 57.4781 55.2998C57.7916 55.1265 58.0205 55.367 58.2525 55.6107C58.2892 55.6492 58.3259 55.6878 58.363 55.7248C58.7127 56.077 59.1745 56.3358 59.6147 56.5825L59.6147 56.5825L59.6223 56.5868C60.0081 56.7993 60.2123 56.6222 60.2577 56.1735C60.3031 55.6422 60.1442 55.1935 59.7585 54.8511C57.5916 52.9266 56.2301 50.4117 55.0049 47.8024C54.0632 45.7834 53.4619 43.67 53.2464 41.4267C53.0875 39.7383 53.3712 38.0971 53.6775 36.4559C53.825 35.7121 53.9725 34.9565 54.0178 34.189C54.1199 32.6659 53.6094 31.379 52.3501 30.5643C50.7958 29.5607 49.4117 28.3564 48.2999 26.8451C48.3112 26.8805 48.2545 26.9159 48.1978 26.9514ZM51.5212 32.3137C52.1793 32.8686 52.4175 33.5062 52.2814 34.2973C52.1975 34.8087 52.1051 35.3187 52.0128 35.8287L52.0126 35.8294L52.0126 35.8295C51.8428 36.7675 51.6728 37.7058 51.5553 38.654C51.1695 41.8537 51.8843 44.8763 53.0755 47.7926C53.2911 48.3239 53.3138 48.749 53.0869 49.2803C52.0545 51.7125 50.9313 54.0857 49.4791 56.2936C47.5958 59.1509 44.9637 60.4732 41.6737 60.4732C41.4792 60.4732 41.2858 60.4764 41.0929 60.4796H41.0928C40.6439 60.4871 40.1972 60.4945 39.745 60.4614C39.5181 60.4496 39.2344 60.2961 39.1096 60.1072C38.0546 58.6196 38.2361 55.538 39.45 54.1802C39.5861 54.0267 39.8925 53.885 40.0626 53.944C40.192 53.9921 40.2837 54.1968 40.3685 54.3859C40.3878 54.429 40.4067 54.4713 40.4257 54.5107C40.4725 54.6082 40.5065 54.7155 40.5404 54.8223C40.5968 55.0002 40.6526 55.1764 40.766 55.3018C40.9703 55.5498 41.322 55.904 41.5489 55.8567C41.7871 55.8095 42.0254 55.3727 42.1275 55.0657C42.2296 54.7705 42.1955 54.4045 42.1388 54.0975C42.0566 53.6652 41.9534 53.2361 41.8505 52.8078L41.8505 52.8077C41.6695 52.0545 41.4892 51.3038 41.4241 50.5436C41.1177 47.1314 41.4127 43.7783 42.8309 40.6258C43.1599 39.9056 43.5343 39.1735 44.0221 38.5596C44.5326 37.8984 45.168 37.3199 45.8146 36.8004C46.4782 36.2577 47.162 35.7446 47.8467 35.2307L47.8468 35.2307L47.8471 35.2304C48.3095 34.8834 48.7723 34.5361 49.2295 34.1792C49.7396 33.7751 50.2446 33.3604 50.7581 32.9387C51.0099 32.7319 51.2637 32.5235 51.5212 32.3137ZM27.1375 40.7059C26.8462 40.6162 26.5535 40.5261 26.2553 40.4348C26.1543 40.6627 26.0563 40.8939 25.958 41.1258C25.7915 41.5188 25.624 41.9142 25.4385 42.3003C24.3153 44.6617 22.8404 46.7161 20.56 48.0385C20.3785 48.1447 20.2537 48.4163 20.1857 48.6406C19.6411 50.5415 18.9604 52.3598 17.7011 53.8947C17.6103 54.0128 17.5309 54.2253 17.5649 54.3552C17.962 55.6658 18.3704 56.9763 18.8129 58.2633C18.8923 58.4876 19.1306 58.7001 19.3461 58.83C20.1516 59.3023 20.9571 59.7628 21.7853 60.1996C22.0576 60.3413 22.3753 60.4712 22.6702 60.4712C25.0693 60.4889 27.4619 60.4867 29.8577 60.4845C30.657 60.4837 31.4566 60.483 32.2569 60.483H32.9603C32.884 60.3202 32.8218 60.1614 32.763 60.0111C32.6468 59.7145 32.5436 59.451 32.3704 59.2551C31.9392 58.771 31.4514 58.3105 30.9295 57.9445C30.4394 57.6014 29.9074 57.3165 29.3773 57.0327C29.2324 56.9552 29.0878 56.8778 28.9441 56.7992C28.3769 56.4804 28.1273 56.0082 28.1727 55.347C28.1802 55.1895 28.1979 55.0321 28.2155 54.8747C28.2243 54.796 28.2332 54.7173 28.2407 54.6385C28.2754 54.2811 28.3186 53.9225 28.3618 53.5635C28.46 52.7486 28.5584 51.9315 28.5584 51.1201C28.5584 49.4317 27.8323 47.9794 26.7999 46.7043C28.5924 45.3111 28.9441 43.3393 29.1143 41.3085C28.4324 41.1046 27.7885 40.9063 27.1375 40.7059Z" fill="#20113D"/>
</svg>
