<svg width="37" height="61" viewBox="0 0 37 61" fill="none" xmlns="http://www.w3.org/2000/svg">
<path fill-rule="evenodd" clip-rule="evenodd" d="M18.059 0.509589C19.0001 0.456908 19.8976 0.650073 20.8213 0.974941C20.7908 1.06204 20.7625 1.14765 20.7347 1.23176L20.7347 1.23176C20.6672 1.43593 20.6027 1.63129 20.5163 1.81784C20.2505 2.39295 19.9804 2.96805 19.7103 3.54315C19.4401 4.11826 19.17 4.69336 18.9042 5.26847L18.9035 5.2701C18.7604 5.58031 18.6907 5.73136 18.5735 5.79504C18.4623 5.85548 18.3084 5.83723 18.0083 5.80165L17.9544 5.79528C17.6494 5.76016 17.4664 5.62846 17.4229 5.32993C17.4044 5.20421 17.381 5.07786 17.3576 4.9514L17.3576 4.95136L17.3576 4.95133L17.3576 4.9513L17.3576 4.95127L17.3575 4.95123L17.3575 4.9512L17.3575 4.95117L17.3575 4.95113L17.3575 4.9511L17.3575 4.95107C17.2927 4.60071 17.2276 4.24938 17.266 3.90753C17.3622 3.06287 17.518 2.22366 17.6736 1.38561L17.6736 1.38556L17.6736 1.38548L17.6736 1.38539L17.6736 1.38531L17.6737 1.38522L17.6737 1.38513L17.6737 1.38506L17.6737 1.385L17.6737 1.38497L17.6737 1.38494L17.6737 1.3849C17.7154 1.16039 17.7571 0.935963 17.7976 0.711534C17.815 0.632512 17.9631 0.518369 18.059 0.509589ZM12.1868 3.35521L12.187 3.35546L12.187 3.35551L12.1871 3.35561C12.7648 4.22139 13.3301 5.06853 13.9201 5.90076C14.138 6.21685 14.4342 6.49781 14.9135 6.30465C15.6455 6.02368 15.8285 5.83052 15.6106 5.05786C15.3499 4.11869 15.5117 3.2156 15.6741 2.30935L15.6741 2.30933C15.6908 2.21583 15.7076 2.12229 15.7239 2.02868C15.7849 1.69503 15.7762 1.32626 15.6977 0.992616C15.6629 0.834572 15.3492 0.597506 15.2272 0.623847C13.894 0.957495 12.7263 1.61601 11.6109 2.49403C11.8051 2.7832 11.9966 3.07022 12.1868 3.35521ZM8.76397 10.0505C9.37446 10.4996 9.98674 10.95 10.6099 11.4059C10.4007 12.4157 9.86047 12.9864 8.80609 13.1005C7.35086 13.2498 6.1222 12.6527 5.01554 11.7572C4.95454 11.7045 4.9284 11.5113 4.97197 11.4235C5.03594 11.2801 5.09961 11.1364 5.16332 10.9926L5.16393 10.9912L5.16474 10.9894L5.16497 10.9889L5.16567 10.9873L5.16569 10.9872L5.16571 10.9872L5.16573 10.9872L5.16574 10.9871L5.16576 10.9871L5.16578 10.9871L5.16579 10.987L5.16581 10.987L5.16583 10.987L5.16585 10.9869L5.16586 10.9869L5.16588 10.9869L5.1659 10.9868L5.16591 10.9868C5.44847 10.349 5.73168 9.70977 6.04378 9.08797C6.12758 8.91305 6.26484 8.76714 6.39624 8.62747L6.39627 8.62743C6.45614 8.56379 6.51479 8.50144 6.56661 8.43823C7.30603 8.97791 8.03256 9.5124 8.76162 10.0488L8.76314 10.0499L8.76344 10.0501L8.76397 10.0505ZM9.15362 15.4169C7.50669 15.0043 5.91204 14.6004 4.1954 14.1614C4.15863 14.3652 4.11755 14.5755 4.07556 14.7904L4.07555 14.7905C3.99815 15.1867 3.9177 15.5985 3.85556 16.014C3.7959 16.4075 3.75649 16.8044 3.71632 17.2089V17.2089C3.69196 17.4543 3.66732 17.7025 3.63771 17.9544C5.01451 18.6481 6.42616 18.8412 7.82039 18.0335C8.81377 17.4715 9.2059 16.5408 9.15362 15.4169ZM3.69866 20.0716C3.43724 21.4589 3.64638 22.7671 4.13436 24.0403C4.17793 24.1456 4.29121 24.2598 4.39577 24.2949C6.45226 24.9885 8.77016 23.6013 9.09258 21.7311C9.13614 21.4764 9.15357 21.2043 9.13614 20.9496C9.03158 19.8345 8.82244 19.6765 7.74192 19.8345L7.43061 19.8801C6.68901 19.9889 5.94658 20.0978 5.19745 20.1594C4.86838 20.1835 4.53109 20.1497 4.18277 20.1147C4.02379 20.0988 3.86251 20.0826 3.69866 20.0716ZM9.55447 28.3061C10.2516 26.8134 10.0337 25.7422 8.85736 24.8115C7.63741 25.7422 6.22576 26.0847 4.70954 26.1373C4.60497 26.1373 4.43069 26.2866 4.40455 26.4007C4.16928 27.5158 4.5004 28.508 5.11909 29.4211C5.16862 29.4932 5.26335 29.5303 5.37034 29.5722C5.43274 29.5966 5.4993 29.6226 5.5635 29.6582C5.53333 29.6785 5.50389 29.6987 5.47475 29.7188L5.47469 29.7188C5.40286 29.7683 5.33289 29.8164 5.25851 29.8601C3.67258 30.8172 2.39164 32.0728 1.63352 33.7849C0.640137 36.0414 0.282871 38.3682 1.1804 40.7652C1.34195 41.1961 1.49054 41.6348 1.63889 42.0727L1.63893 42.0729L1.63898 42.073L1.63902 42.0732L1.63907 42.0733L1.63911 42.0734L1.63916 42.0736L1.63921 42.0737L1.63925 42.0738L1.6393 42.074L1.63934 42.0741L1.63939 42.0742L1.63943 42.0744L1.63948 42.0745L1.63953 42.0747L1.63957 42.0748L1.63962 42.0749L1.63966 42.0751C1.76313 42.4396 1.88643 42.8036 2.01694 43.1622C2.45263 44.3739 2.48749 45.6206 2.13894 46.8323C1.11069 50.3707 2.07794 53.6194 3.44602 56.8242C3.56607 57.0921 3.76207 57.3344 3.95098 57.568L3.96014 57.5793C4.22156 57.9042 4.5614 58.0095 4.97096 57.8691C5.38051 57.7198 5.67678 57.4476 5.65935 57.0174C5.64192 56.4642 5.57221 55.9111 5.44151 55.3755C5.3413 54.9496 5.2193 54.5282 5.09731 54.1067C4.97531 53.6853 4.85332 53.2638 4.75311 52.838C4.47426 51.6351 4.83153 50.6429 5.80749 49.8966C5.84912 49.8659 5.88985 49.8342 5.93027 49.8028L5.93037 49.8027L5.93047 49.8027L5.93058 49.8026L5.93068 49.8025L5.93073 49.8025L5.93078 49.8024L5.93083 49.8024L5.93089 49.8023L5.93113 49.8022C6.01735 49.7352 6.10211 49.6693 6.1909 49.6156C7.66356 48.764 8.5698 47.4294 9.31919 45.9455C9.52846 45.5238 9.79926 45.131 10.0697 44.7388L10.0697 44.7387C10.1934 44.5594 10.317 44.3801 10.4346 44.1982L10.5391 44.2509C10.5914 44.4968 10.6448 44.7426 10.6982 44.9884L10.6982 44.9886C10.8583 45.7261 11.0184 46.4636 11.1491 47.2011C11.7329 50.4059 13.6152 52.8204 15.7936 55.0682C16.0085 55.2933 16.2912 55.4587 16.5581 55.6148L16.5692 55.6213C16.9352 55.8408 17.3099 55.8408 17.6584 55.5511C18.0157 55.2525 18.1464 54.875 17.9895 54.4535C17.8327 54.0497 17.6323 53.6545 17.3883 53.2946C17.1352 52.9263 16.862 52.5732 16.589 52.2204C16.3543 51.9171 16.1197 51.614 15.8982 51.3014C14.8612 49.8439 14.8177 48.8166 15.8372 47.3591C16.6476 46.1914 17.2053 44.9182 17.702 43.5397C17.8406 43.6047 17.9769 43.6649 18.1103 43.7238L18.1105 43.7239L18.1106 43.7239L18.1107 43.724L18.1108 43.724L18.111 43.7241C18.3379 43.8243 18.5567 43.9209 18.7651 44.0314C20.9087 45.208 22.2245 47.0606 23.0088 49.3347C23.3273 50.2417 23.6018 51.1653 23.876 52.0879L23.876 52.0881L23.8762 52.0887C23.947 52.3269 24.0178 52.5651 24.0893 52.8029C24.342 53.6458 24.7515 54.3921 25.3092 55.0594C25.522 55.3123 25.7345 55.5653 25.9469 55.8182L25.947 55.8182L25.947 55.8182L25.947 55.8182C26.9438 57.0048 27.9388 58.1892 28.9516 59.3617C29.2392 59.6953 29.5878 60.0114 29.9625 60.2485C30.6421 60.6787 31.3044 60.547 31.9318 59.9412C32.3849 59.5022 32.4633 58.9578 32.0538 58.2642C31.8189 57.8647 31.5159 57.5026 31.2178 57.1464L31.2178 57.1463L31.2177 57.1463L31.2176 57.1462L31.2172 57.1457C31.1617 57.0794 31.1064 57.0133 31.0517 56.9471C30.8774 56.7364 30.677 56.5345 30.4679 56.3589C28.6989 54.8399 28.2632 52.8292 28.3417 50.6254C28.3543 50.2553 28.3992 49.8853 28.4428 49.5254L28.4429 49.5253C28.4593 49.3899 28.4755 49.2559 28.4898 49.124C28.7624 49.0715 29.0318 49.019 29.2953 48.9677L29.2969 48.9674C29.7824 48.8728 30.248 48.7821 30.677 48.7025C30.8395 49.0632 30.9915 49.4319 31.1438 49.8012C31.4735 50.6004 31.8045 51.4029 32.2455 52.1356C32.8942 53.2156 33.6628 54.2208 34.4312 55.2258L34.4316 55.2263L34.4317 55.2265L34.4317 55.2265C34.6127 55.4632 34.7936 55.6998 34.973 55.9374C35.2779 56.3413 35.6875 56.6662 36.2452 56.5345C36.5415 56.4642 36.768 55.6564 36.6199 55.0857C36.4805 54.5501 36.3149 54.0058 36.0448 53.5316C34.8422 51.398 34.3804 49.0537 34.058 46.6743C33.8924 45.4626 33.1779 44.9182 31.9754 45.1553C29.7272 45.6031 27.4703 45.8226 25.1785 45.6206C25.0217 45.6031 24.8649 45.568 24.7081 45.5329L24.708 45.5328C23.0872 45.1465 22.4423 43.6363 23.2789 42.17C23.305 42.1173 23.3312 42.0647 23.3747 42.0208C24.1538 41.2293 24.576 40.2461 25 39.2589C25.1499 38.91 25.3 38.5606 25.4661 38.2189C25.7972 37.5516 26.4246 36.9897 27.0259 36.498C27.7665 35.9009 28.6728 35.6024 29.6052 35.4005C29.7359 35.3741 29.9276 35.2512 29.9537 35.1458C29.9799 35.0229 29.8753 34.7946 29.7707 34.742C29.7042 34.7103 29.6373 34.6778 29.57 34.6451C29.1704 34.4507 28.7581 34.2502 28.333 34.1976C27.6358 34.1098 26.9126 34.1273 26.2068 34.1976C25.4225 34.2766 24.7254 34.0308 24.0718 33.7147C23.3747 33.381 22.7125 32.9244 22.0851 32.4679C20.3684 31.2123 18.6344 29.9919 16.665 29.1577C14.5563 28.2534 12.3691 27.9548 10.1034 28.2885C9.93788 28.2709 9.75489 28.2797 9.55447 28.3061ZM19.1129 26.616C18.4158 27.055 17.6576 27.2482 16.8385 27.2482C16.0543 27.2219 15.3049 27.0638 14.6688 26.5721C13.9629 26.0365 13.6928 25.2463 14.1024 24.4824C14.3638 24.0017 14.7281 23.5803 15.0925 23.1588L15.0926 23.1587L15.0927 23.1586L15.0928 23.1584L15.093 23.1583L15.0931 23.1581L15.0932 23.158L15.0933 23.1578L15.0934 23.1577L15.0936 23.1576L15.0937 23.1574L15.0938 23.1573L15.0939 23.1571L15.0939 23.1571L15.094 23.1571L15.094 23.1571L15.094 23.1571C15.2149 23.0172 15.3359 22.8773 15.453 22.7352C15.514 22.6649 15.6622 22.6386 15.7667 22.6474C17.6576 22.8318 19.1216 24.14 19.4614 25.7907C19.5486 26.1946 19.4353 26.4141 19.1129 26.616ZM9.64987 4.03198C10.6433 4.78708 12.0375 6.508 12.9873 8.13234L12.8893 8.2573L12.8893 8.25732L12.8893 8.25734L12.8891 8.25754L12.889 8.25762L12.8889 8.25782C12.6643 8.54404 12.4521 8.81441 12.2466 9.09817C12.0636 9.35279 11.8458 9.41426 11.5321 9.31767C9.92001 8.79964 8.81334 7.64065 7.64567 6.39386C8.32472 5.59561 8.98637 4.81488 9.64801 4.03418L9.64838 4.03374L9.64987 4.03198ZM23.2437 9.42381C23.9618 8.80061 24.8364 8.69169 25.7162 8.58212L25.7162 8.58211L25.7163 8.5821L25.7163 8.5821L25.7164 8.58209L25.7164 8.58209L25.7165 8.58208L25.7165 8.58208L25.7165 8.58207L25.7166 8.58206L25.7166 8.58206L25.7167 8.58205C25.9151 8.55734 26.1138 8.53259 26.311 8.50189C26.7642 8.43165 27.2173 8.29995 27.653 8.15946C27.7488 8.12434 27.8883 7.94874 27.8708 7.86094C27.7401 6.99169 27.47 6.17513 26.7467 5.6132C26.6247 5.51662 26.4243 5.45516 26.2849 5.47272C25.2218 5.63954 24.2371 6.00831 23.357 6.63171C23.2524 6.71073 23.1479 6.78975 23.052 6.87755C22.1458 7.72045 22.2068 8.6775 23.2437 9.42381ZM23.584 23.8298C22.7039 22.2494 18.8698 20.7392 17.8764 21.5909C17.8764 21.6172 17.8764 21.6611 17.8938 21.6699C19.0789 22.706 19.9329 24.0142 20.7607 25.34C20.9611 25.6649 21.1615 25.6825 21.4752 25.5771C22.2072 25.3313 23.0437 24.6464 23.584 23.8298ZM29.4388 40.8709C29.3081 41.547 29.038 41.7489 28.3409 41.7665C28.2184 41.7435 28.0959 41.7252 27.974 41.7071C27.7231 41.6696 27.4747 41.6326 27.2342 41.5557C26.4499 41.3187 26.1101 40.7655 26.2582 39.949C26.3105 39.6504 26.4238 39.3607 26.5545 39.0885C27.0251 38.1315 27.8006 37.4554 28.6894 36.911C28.9944 36.7266 29.3604 36.6125 29.7089 36.551C29.87 36.5198 30.0488 36.5641 30.2263 36.608C30.2985 36.6259 30.3704 36.6437 30.4409 36.6564C30.4262 36.7208 30.4149 36.7888 30.4035 36.857C30.3747 37.0306 30.3455 37.2064 30.2579 37.3325C29.7525 38.0612 29.6044 38.8778 29.5608 39.7382C29.5434 40.1158 29.5085 40.5021 29.4388 40.8709ZM27.8267 39.589C27.4433 39.589 27.1035 39.9314 27.1122 40.3177C27.1144 40.4173 27.1371 40.5119 27.176 40.5975C27.1377 40.5124 27.1153 40.4186 27.1132 40.3198C27.1132 39.9335 27.4443 39.5911 27.8277 39.5911C28.1108 39.5911 28.3576 39.7604 28.4697 40.0066C28.3581 39.7593 28.1107 39.589 27.8267 39.589ZM23.5053 11.861C23.8448 11.8893 24.1821 11.9173 24.5178 11.9452L24.5179 11.9452L24.5181 11.9452L24.5181 11.9452L24.5182 11.9452L24.5183 11.9452C25.8453 12.0554 27.1457 12.1633 28.4461 12.2824C28.8295 12.3175 28.9515 12.1683 28.9864 11.8083C29.0561 11.0356 28.7947 10.4298 28.1498 10.0083C27.0606 9.30592 25.1174 9.42884 24.124 10.2717C23.6186 10.6932 23.4007 11.2288 23.5053 11.861ZM22.7214 1.75488C23.767 2.3256 24.7604 2.90509 25.4575 3.89726C23.8542 4.84552 22.3031 5.76744 20.752 6.69815C20.4644 6.24157 20.4296 5.93427 20.6387 5.29331C21.0363 4.0588 21.789 3.02983 22.552 1.98667L22.5524 1.98615L22.553 1.98535C22.6091 1.90863 22.6653 1.83184 22.7214 1.75488ZM20.3512 19.9945C21.4381 20.3668 22.3115 21.0397 23.2018 21.7256L23.2018 21.7256C23.739 22.1395 24.2823 22.5581 24.8825 22.9183C24.9641 22.7888 25.0453 22.6604 25.1261 22.5328L25.1271 22.5311L25.1278 22.5301L25.1279 22.5299C25.4519 22.0179 25.7681 21.5182 26.0676 21.013C26.1111 20.9427 26.085 20.7408 26.0153 20.6881C24.8825 19.7925 23.6625 19.0725 22.1724 19.0023C21.4318 18.9847 20.7695 19.1779 20.3512 19.9945ZM28.6384 14.1647C28.621 14.884 28.6031 15.6207 28.1417 16.226C27.9606 16.166 27.7815 16.1053 27.6035 16.045C27.1309 15.8849 26.667 15.7278 26.1985 15.5938C25.3707 15.3743 24.5429 15.1724 23.7064 14.988C23.3927 14.9177 23.3229 14.7597 23.3665 14.4612C23.4798 13.6358 24.0462 13.1266 25.0047 13.0915C26.2334 13.0388 27.3662 13.4514 28.4729 13.9431C28.5513 13.9783 28.6384 14.0924 28.6384 14.1626L28.6384 14.1647ZM25.5606 40.8882C25.3745 41.1173 25.2081 41.3188 25.0529 41.5066L25.0524 41.5072C24.8807 41.715 24.7227 41.9062 24.5672 42.0999C24.5138 42.1665 24.4581 42.2316 24.4026 42.2966L24.4025 42.2967C24.268 42.4542 24.1343 42.6107 24.0356 42.7847C23.7132 43.3466 23.8701 43.9613 24.4626 44.2159C24.9332 44.4178 25.456 44.5495 25.9614 44.6022C27.3121 44.7515 28.6453 44.6198 29.9524 44.2247C29.8653 43.6101 29.5864 43.3291 28.9764 43.2676C28.672 43.2402 28.3641 43.2299 28.057 43.2197L28.0569 43.2196L28.0567 43.2196L28.0565 43.2196C27.8717 43.2134 27.6871 43.2073 27.5038 43.1974C26.3187 43.1271 26.127 42.9428 25.8917 41.7838C25.8508 41.5895 25.7707 41.3991 25.6856 41.1968C25.6438 41.0974 25.6008 40.9952 25.5606 40.8882ZM26.6596 19.4215C25.2654 18.6927 23.845 18.0606 22.2678 17.7445C22.4943 16.6206 23.235 16.1201 24.4027 16.2694C25.5791 16.4099 26.6247 16.9016 27.5833 17.5777C27.6791 17.6479 27.8011 17.8059 27.775 17.8762C27.5833 18.3679 27.3828 18.8684 27.1301 19.3337C27.0779 19.4215 26.7729 19.483 26.6596 19.4215ZM30.4855 39.0281C30.4855 39.9412 30.6337 40.0905 31.3308 39.9588C31.6183 39.9061 31.9233 39.7832 32.1586 39.6076C33.0648 38.9315 33.3175 37.2984 32.6901 36.394C32.542 36.1833 32.4113 36.0955 32.1673 36.2711C31.1565 37.0174 30.5291 37.9569 30.4855 39.0281Z" fill="#20113D"/>
</svg>
