<svg width="81" height="61" viewBox="0 0 81 61" fill="none" xmlns="http://www.w3.org/2000/svg">
<path fill-rule="evenodd" clip-rule="evenodd" d="M29.3146 37.7533C26.0305 38.7468 22.7208 38.594 19.3858 36.3776C19.1296 36.6998 18.8671 37.0242 18.602 37.3518C17.9448 38.164 17.2711 38.9965 16.6362 39.8678C16.1652 40.5429 15.7261 41.2434 15.2869 41.944L15.2869 41.944C14.8477 42.6446 14.4086 43.3452 13.9376 44.0203C12.8938 45.5233 12.5119 47.1538 12.6138 48.9625C12.741 51.2808 11.8245 52.4527 9.55871 52.8603C4.89978 53.701 0.724558 50.2363 0.699099 45.5233C0.699099 45.0631 0.690892 44.6029 0.682714 44.1443C0.670521 43.4606 0.658393 42.7805 0.673631 42.1096C0.716438 40.3106 1.49699 38.7456 2.27404 37.1876C2.42127 36.8924 2.56838 36.5974 2.71032 36.3012C3.07764 35.539 3.44838 34.7781 3.81917 34.017C5.19594 31.1911 6.57318 28.3642 7.77661 25.4741C9.54557 21.2384 12.2029 17.5954 14.8697 13.9395C15.4269 13.1757 15.9844 12.4113 16.5344 11.6409C16.5608 11.6079 16.5888 11.5749 16.6173 11.5415L16.6175 11.5413L16.6175 11.5413L16.6175 11.5412L16.6175 11.5412L16.6175 11.5412C16.6989 11.4456 16.7833 11.3464 16.8399 11.2333C19.8185 5.80698 25.114 4.5332 30.5621 3.46323C31.9057 3.20377 33.2383 2.8788 34.5701 2.55403C36.1153 2.17724 37.6593 1.80072 39.2181 1.52708C42.0694 1.01757 44.9972 0.60996 47.8995 0.508058C51.3364 0.38068 54.2387 1.98564 56.81 4.20201C52.9148 2.21492 48.7396 1.52709 44.4116 1.62899C43.3169 1.65446 42.2222 1.75637 41.1275 1.88374C39.549 2.06207 38.8871 3.23394 38.4543 4.58414C37.3341 8.02334 37.5633 11.4116 38.7598 14.8253C39.0482 15.6455 39.228 16.5109 39.4071 17.373L39.4071 17.3731L39.4071 17.3731L39.4071 17.3731L39.4071 17.3732C39.5284 17.9571 39.6494 18.5394 39.8036 19.1052C40.0002 19.8102 40.1921 20.5175 40.3842 21.2252L40.3843 21.2258C41.0873 23.8167 41.7915 26.4121 42.7314 28.9133C43.1132 29.9578 44.3862 30.9768 45.4809 31.3844C49.7834 32.9384 54.1878 33.7791 58.7449 32.2251C64.4731 30.2635 67.4263 24.1494 65.2623 18.4683C64.5689 16.6686 63.7464 14.9243 62.9204 13.1725L62.9203 13.1724L62.9203 13.1724C62.7758 12.866 62.6313 12.5594 62.4873 12.2523C62.3554 11.9695 62.0842 11.7426 61.8179 11.5198L61.8179 11.5198C61.7243 11.4415 61.6314 11.3637 61.5453 11.2842C61.216 10.9716 60.8728 10.6675 60.5285 10.3624C59.8347 9.74753 59.1368 9.12907 58.5412 8.43096C57.7011 7.43741 57.7265 6.18911 58.4648 5.11914C59.1776 4.07464 60.3233 3.81989 61.5198 4.02369C63.3783 4.3294 64.5749 5.47579 65.1859 7.18265C65.7714 8.83856 65.2114 10.2652 63.7602 11.5135C65.6696 13.093 66.3061 15.3603 66.8662 17.6021C67.0782 18.451 67.1922 19.3271 67.3064 20.2052V20.2053C67.4389 21.2247 67.5718 22.2468 67.8591 23.2322C68.3387 24.864 68.9141 26.4736 69.4902 28.0849C69.9845 29.4672 70.4791 30.8507 70.9141 32.2506C71.4789 34.0427 71.9991 35.8498 72.5188 37.6557L72.519 37.6564C72.9597 39.1874 73.4001 40.7176 73.8673 42.237C74.1277 43.0838 74.4609 43.9097 74.7937 44.7348L74.7938 44.735L74.7939 44.7352L74.794 44.7354L74.7941 44.7357C74.9819 45.2012 75.1695 45.6663 75.3439 46.1347C75.9019 47.6164 77.1653 48.2836 78.4175 48.9449C78.6509 49.0681 78.8838 49.1911 79.1118 49.3192C80.2829 49.9816 80.8939 50.8477 80.5884 52.2234C80.3083 53.5226 79.4682 54.3379 77.9152 54.2869C74.7329 54.1595 71.576 53.8538 68.4192 53.5227C67.8845 53.4717 67.3244 52.9112 66.9426 52.4527C64.804 49.8796 62.691 47.2811 60.6033 44.6826C59.1522 42.8739 58.0829 40.8868 57.5228 38.6195C57.2848 37.6865 56.7994 36.8 56.3197 35.9236C56.1837 35.6753 56.0482 35.4278 55.9189 35.1803C55.7916 34.9255 55.4352 34.6962 55.1552 34.6453L54.9541 34.6054C53.3412 34.2846 51.7368 33.9654 50.3435 35.3841C49.9888 35.7643 49.4073 35.968 48.8999 36.1457L48.8924 36.1483C48.0013 36.454 47.594 37.0145 47.9249 37.8807C49.0994 41.0316 49.0107 44.2509 48.9218 47.4775V47.4776C48.8777 49.0772 48.8336 50.6786 48.9433 52.2743C48.9885 52.8858 49.074 53.4972 49.1595 54.1086C49.2664 54.8729 49.3732 55.6371 49.4015 56.4014C49.427 56.9873 49.1724 57.828 48.7651 58.1337C45.3791 60.6813 41.5857 61.1144 37.6905 59.7132C35.7557 58.9999 34.4573 57.5987 34.1518 55.204C33.5662 50.2363 32.777 45.2941 31.7587 40.4028C31.392 38.5679 30.5094 36.8157 29.6496 35.1089L29.6496 35.1088L29.6495 35.1086L29.6495 35.1085C29.5543 34.9196 29.4594 34.7312 29.3656 34.5434C26.9215 29.6776 26.2341 24.6334 27.0997 19.2326C27.8126 14.7489 28.78 10.469 31.7587 6.92789C32.373 6.20464 33.1028 5.58405 33.8297 4.96593L33.8298 4.96583L33.8299 4.96576L33.8299 4.96573C34.1271 4.71303 34.4238 4.46074 34.7119 4.20201C34.7554 4.16465 34.802 4.12881 34.8491 4.09263C34.9945 3.9808 35.1441 3.86574 35.221 3.6925C31.3004 3.74345 27.7617 4.8389 24.2738 6.46934C21.0065 7.96874 19.1341 10.6427 17.2383 13.3503L17.2382 13.3503C16.8149 13.9549 16.3903 14.5612 15.9488 15.1565C15.7706 15.4112 15.7706 15.8443 15.7961 16.201C16.1699 19.7673 17.5441 23.0162 18.9154 26.2585L19.0039 26.4676C19.2766 27.0863 19.4195 27.77 19.5624 28.4537C19.6196 28.7272 19.6767 29.0006 19.7422 29.2699C19.8949 29.9578 20.0477 30.6711 20.0986 31.3844C20.109 31.5294 20.1202 31.6754 20.1316 31.8219C20.2039 32.7568 20.2781 33.7169 20.1241 34.6198C19.8186 36.2248 19.9458 36.7088 21.6007 36.9636C22.1258 37.0161 22.6553 37.0686 23.1871 37.1214L23.1998 37.1227L23.2078 37.1235L23.2137 37.1241C25.2514 37.3263 27.3228 37.5318 29.3146 37.7533ZM41.5862 13.8348C40.1096 13.2234 39.4986 11.7712 39.2949 10.0644C39.0658 8.20468 40.7461 5.88641 42.7064 5.19857C44.2594 4.66358 46.4488 5.52975 47.3144 7.05828C47.8236 7.9754 48.0272 8.7142 46.9071 9.50394C45.6396 10.3917 44.4623 11.3955 43.192 12.4786C42.6761 12.9184 42.145 13.3713 41.5862 13.8348ZM46.4226 21.653C45.9643 23.6655 47.2627 25.2705 48.8412 25.1431C48.9841 24.6873 49.1207 24.2409 49.2555 23.8006C49.5049 22.9858 49.7478 22.192 50.0123 21.3982C50.0823 21.1997 50.179 21.0066 50.2755 20.8139L50.2755 20.8139L50.2756 20.8138C50.3896 20.5861 50.5034 20.359 50.5723 20.1244C50.776 19.3856 51.0051 18.4176 50.0632 18.1883C49.3758 18.0354 48.2811 18.2647 47.8483 18.7488C47.1609 19.513 46.6517 20.6085 46.4226 21.653ZM55.5103 18.8004C55.6239 18.6487 55.7286 18.4835 55.8316 18.3208C56.0747 17.9371 56.3086 17.5678 56.6304 17.4247C56.9614 17.2718 57.6742 17.5775 58.0307 17.8832C58.1092 17.9509 58.1881 18.0186 58.2672 18.0864L58.2672 18.0864C59.1107 18.8098 59.9713 19.5479 60.5765 20.4563C60.9075 20.9913 60.7802 21.9848 60.5511 22.6472C60.3729 23.1312 59.7109 23.6407 59.2018 23.7426C58.8708 23.7936 58.3362 23.1822 58.0052 22.7746C57.4451 22.0867 56.9614 21.3734 56.4777 20.6091C56.2312 20.2744 56.0456 19.891 55.8283 19.4419L55.8282 19.4419C55.7313 19.2416 55.628 19.0282 55.5103 18.8004ZM56.8455 27.9538L56.8601 27.9449C56.8529 27.9014 56.8436 27.8558 56.834 27.8088C56.8098 27.6905 56.7838 27.5629 56.7838 27.4353C56.648 27.4014 56.5122 27.3561 56.3764 27.3108C56.1049 27.2202 55.8333 27.1296 55.5618 27.1296C54.5179 27.1296 53.4741 27.1551 52.4558 27.2825C52.0485 27.3335 51.5647 27.6137 51.3865 27.9194C51.2847 28.0977 51.6157 28.6582 51.8957 28.9129C52.0444 29.0617 52.2626 29.1149 52.4844 29.169C52.6422 29.2075 52.8019 29.2464 52.9395 29.3205C53.2196 29.4734 53.7287 29.7791 53.7033 29.9065C53.6014 30.2631 53.3468 30.6198 53.0413 30.8745C52.8934 31.0061 52.6819 31.0527 52.4203 31.1104C52.2767 31.142 52.1181 31.177 51.9466 31.2312C52.9348 31.1664 53.8508 31.1015 54.7668 31.0367C55.2904 30.9996 55.8139 30.9626 56.351 30.9255C56.0504 30.7918 55.706 30.7513 55.3744 30.7123C54.6948 30.6323 54.0689 30.5587 53.9833 29.7027C55.0215 29.0692 55.9338 28.5113 56.8455 27.9538Z" fill="#20113D"/>
</svg>
